<svg width="64" height="64" xmlns="http://www.w3.org/2000/svg"><path d="M30.37 7.066v.017c-3.32.227-6.574 1.045-9.412 2.463C11.094 14.47 5.696 24.564 7.271 35.14c.49 3.288 1.843 6.792 3.675 9.515.36.534.685 1.004.72 1.038.036.034.36.437.705.888.864 1.125 3.05 3.26 4.396 4.288 3.789 2.892 8.77 4.749 13.705 5.109 1.055.077 4.338-.06 5.444-.218.538-.077 1.19-.183 1.46-.251a66.16 66.16 0 0 1 1.185-.285c4.495-1.04 9.135-3.789 12.485-7.404.897-.967 2.098-2.512 2.593-3.35l.361-.62-5.204-2.931c-2.857-1.608-5.292-2.948-5.41-2.965-.124-.017-.419.274-.704.687-1.382 2.003-3.797 3.779-6.217 4.573-1.756.576-2.217.637-4.259.636-2.258-.001-3.492-.247-5.272-1.038-1.33-.591-2.19-1.167-3.503-2.362-2.27-2.066-3.662-4.96-3.882-8.074-.423-5.988 3.509-11.27 9.549-12.864 1.467-.39 4.683-.439 6.045-.086 1.212.317 2.569.84 3.47 1.34 1.515.842 3.39 2.565 4.207 3.853.168.265.39.47.48.469.09-.001.475-.174.86-.385.75-.415 3.228-1.801 3.915-2.195.23-.132 1.035-.59 1.804-1.021.768-.431 1.65-.928 1.957-1.106.308-.178.932-.518 1.374-.754.443-.236.79-.468.79-.52 0-.051-.34-.608-.773-1.24-3.071-4.477-7.767-7.965-13-9.647-3.141-1.01-6.54-1.383-9.858-1.156v.002zM53.495 26v1.496H52v3.008h1.496v2.992H52v3.008h1.496V38h3.008v-1.496h2.992V38h3.008v-1.496H64v-3.008h-1.496v-2.992H64v-3.008h-1.496V26h-3.008v1.496h-2.992V26h-3.008zM56 31h3.27v2.906H56V31z" fill="#FFF" fill-rule="evenodd"/></svg>