<svg xmlns="http://www.w3.org/2000/svg" xmlns:xlink="http://www.w3.org/1999/xlink" viewBox="0 0 100.9 75"><defs><path id="a" d="M92.3 30.2c-2-1.3-6.5-1.8-9.9-1.1-.7-3.5-2.7-6.6-5.6-8.7L75 19.2l-1.3 2c-1.7 2.7-2.5 5.9-2.2 9.1.2 1.7.8 3.4 1.6 4.9-2 1.1-4.2 1.6-6.5 1.5h-59l-.2.7C7 40.6 7 50.9 13.5 58.7c5.1 6 12.6 9.1 22.4 9.1 21.3 0 37-9.8 44.4-27.7 2.9 0 9.2 0 12.3-6.2l.9-1.6.4-.7-1.6-1.4zM45.9 15.4h8.9V7.2h-8.9v8.2zm0 9.8h8.9V17h-8.9v8.2zm-10.7 0h9V17h-9v8.2zm-10.6 0h9V17h-9v8.2zM13.9 35h9v-8.2h-8.8l-.2 8.2zm10.7 0h9v-8.2h-9V35zm10.6 0h9v-8.2h-9V35zm10.7 0h8.8v-8.2h-8.8V35zm10.6 0h8.8v-8.2h-9l.2 8.2z"/></defs><clipPath id="b"><use xlink:href="#a" overflow="visible"/></clipPath><g clip-path="url(#b)"><path fill="#fff" d="M0 0h100.9v75H0z"/></g></svg>