<svg id="Calque_1" data-name="Calque 1" xmlns="http://www.w3.org/2000/svg" viewBox="0 0 82.96 82.17"><defs><style>.cls-1{fill:none}.cls-3{fill:#fff}</style><clipPath id="clip-path"><path class="cls-1" d="M11.14 55.24h54.1L38.19 10zm58.07 2.22h-62l31-51.91z"/></clipPath><clipPath id="clip-path-2"><path class="cls-1" d="M10.91 53.63l26.58 14.19 26.58-14.26V25.3L37.49 11 10.91 25.3zm26.58 16.81L8.65 55V23.89L37.49 8.43l28.84 15.46V55z"/></clipPath><clipPath id="clip-path-3"><circle class="cls-1" cx="10.09" cy="25.74" r="7.21"/></clipPath><clipPath id="clip-path-4"><circle class="cls-1" cx="64.89" cy="25.74" r="7.21"/></clipPath><clipPath id="clip-path-5"><circle class="cls-1" cx="64.89" cy="57.46" r="7.21"/></clipPath><clipPath id="clip-path-6"><circle class="cls-1" cx="10.09" cy="57.46" r="7.21"/></clipPath><clipPath id="clip-path-7"><circle class="cls-1" cx="38.93" cy="71.88" r="7.21"/></clipPath><clipPath id="clip-path-8"><circle class="cls-1" cx="38.93" cy="8.43" r="7.21"/></clipPath></defs><g clip-path="url(#clip-path)"><path class="cls-3" d="M0-1.66h76.42v66.33H0z"/></g><g clip-path="url(#clip-path-2)"><path class="cls-3" d="M1.44 1.22h72.1v76.42H1.44z"/></g><g clip-path="url(#clip-path-3)"><path class="cls-3" d="M-4.33 11.32h28.84v28.84H-4.33z"/></g><g clip-path="url(#clip-path-4)"><path class="cls-3" d="M50.47 11.32h28.84v28.84H50.47z"/></g><g clip-path="url(#clip-path-5)"><path class="cls-3" d="M50.47 43.04h28.84v28.84H50.47z"/></g><g clip-path="url(#clip-path-6)"><path class="cls-3" d="M-4.33 43.04h28.84v28.84H-4.33z"/></g><g clip-path="url(#clip-path-7)"><path class="cls-3" d="M24.51 57.46h28.84V86.3H24.51z"/></g><g clip-path="url(#clip-path-8)"><path class="cls-3" d="M24.51-5.99h28.84v28.84H24.51z"/></g></svg>