<svg width="133" height="116" xmlns="http://www.w3.org/2000/svg"><g fill="#00CCBE"><path d="M133 58.01a4.09 4.09 0 0 0-.543-2.088L101.289 2.068A4.13 4.13 0 0 0 97.723.02h-2.307A1.3 1.3 0 0 0 94.3.665a1.292 1.292 0 0 0-.007 1.287l26.438 45.793a4.108 4.108 0 0 1-.004 4.107 4.13 4.13 0 0 1-3.562 2.06h-.097a4.13 4.13 0 0 1-3.567-2.05l-8.858-15.309a2.58 2.58 0 0 0-2.229-1.295H72.525a1.3 1.3 0 0 0-1.117.645 1.292 1.292 0 0 0-.007 1.288l6.105 10.554a4.108 4.108 0 0 1-.033 4.117 4.13 4.13 0 0 1-3.591 2.03 4.111 4.111 0 0 1-3.567-2.049L41.125 1.295A2.58 2.58 0 0 0 38.876 0h-3.508a4.15 4.15 0 0 0-3.547 2.068L.556 55.903a4.088 4.088 0 0 0 0 4.117l1.202 2.165a1.3 1.3 0 0 0 2.229 0l26.574-45.87a4.111 4.111 0 0 1 3.566-2.063 4.111 4.111 0 0 1 3.567 6.16l-8.858 15.31a2.565 2.565 0 0 0 0 2.571l14.983 25.825a1.3 1.3 0 0 0 2.229 0l6.105-10.554a4.13 4.13 0 0 1 3.567-2.043 4.13 4.13 0 0 1 3.566 2.043 4.088 4.088 0 0 1 0 4.117l-29.268 50.645c-.468.8-.468 1.79 0 2.59l1.745 3.035A4.13 4.13 0 0 0 35.329 116h62.433a4.112 4.112 0 0 0 3.47-1.933v-.155l1.143-1.933c.227-.4.224-.89-.007-1.287a1.3 1.3 0 0 0-1.118-.646H48.354a4.111 4.111 0 0 1-3.636-2.082 4.088 4.088 0 0 1 .09-4.18 4.13 4.13 0 0 1 3.566-2.05h17.755a2.58 2.58 0 0 0 2.229-1.295l14.924-25.786c.227-.4.225-.89-.006-1.288a1.3 1.3 0 0 0-1.118-.645H70.005a4.13 4.13 0 0 1-3.562-2.06 4.108 4.108 0 0 1-.004-4.106 4.13 4.13 0 0 1 3.566-2.204h58.382a2.58 2.58 0 0 0 2.248-1.295l1.803-3.112a4.09 4.09 0 0 0 .542-1.933h.02z"/><path d="M31.583 1.471L.552 55.381a4.126 4.126 0 0 0 0 4.122l1.193 2.168a1.287 1.287 0 0 0 2.212 0l26.376-45.934a4.074 4.074 0 0 1 3.54-2.065c1.462 0 2.813.788 3.54 2.065a4.145 4.145 0 0 1 0 4.104L28.62 35.17a2.588 2.588 0 0 0 0 2.575l14.871 25.861a1.287 1.287 0 0 0 2.213 0l6.06-10.569a4.093 4.093 0 0 1 3.54-2.046c1.457 0 2.805.78 3.54 2.046a4.126 4.126 0 0 1 0 4.123l-29.05 50.716a2.588 2.588 0 0 0 0 2.593l1.731 3.04a4.091 4.091 0 0 0 1.482 1.49L66 57.49 32.93 0a4.094 4.094 0 0 0-1.347 1.471z"/><path d="M39.645 73.25L24.558 47.626A1.318 1.318 0 0 0 23.432 47c-.462 0-.89.238-1.127.626l-13.95 23.53a2.511 2.511 0 0 0 0 2.575L23.46 99.374a1.32 1.32 0 0 0 1.127.626c.462 0 .89-.238 1.126-.626l13.931-23.55a2.511 2.511 0 0 0 0-2.574zm91.816-17.338L100.526 2.069a4.094 4.094 0 0 0-3.54-2.05h-2.29a1.286 1.286 0 0 0-1.108.646 1.3 1.3 0 0 0-.007 1.288l26.24 45.8a4.136 4.136 0 0 1-.004 4.107 4.094 4.094 0 0 1-3.535 2.06h-.096a4.094 4.094 0 0 1-3.54-2.049l-8.792-15.312a2.557 2.557 0 0 0-2.212-1.295H71.977a1.29 1.29 0 0 0-1.11.645 1.3 1.3 0 0 0-.006 1.288l6.06 10.556a4.138 4.138 0 0 1-.033 4.118 4.094 4.094 0 0 1-3.565 2.03 4.075 4.075 0 0 1-3.54-2.049L40.811 1.295A2.556 2.556 0 0 0 38.579 0h-3.482A4.063 4.063 0 0 0 33 .58L65.993 58H132a4.118 4.118 0 0 0-.539-2.088z"/><path d="M66.041 25.702A2.629 2.629 0 0 0 68.326 27h30.36c.469-.002.9-.248 1.136-.647.235-.398.238-.89.007-1.29L86.038 1.298A2.629 2.629 0 0 0 83.752 0H53.314c-.469.002-.9.248-1.136.647-.235.398-.238.89-.007 1.29l13.87 23.765zM122.69 72H94.73a2.649 2.649 0 0 0-2.3 1.294L77.172 99.068c-.232.4-.23.89.007 1.287.237.397.671.643 1.143.645h28a2.646 2.646 0 0 0 2.298-1.294l15.219-25.793a1.266 1.266 0 0 0-.021-1.273 1.334 1.334 0 0 0-1.129-.64z"/><path d="M100.602 113.931l1.135-1.933c.225-.4.222-.89-.007-1.288a1.287 1.287 0 0 0-1.109-.645h-52.47a4.071 4.071 0 0 1-3.696-2.043 4.118 4.118 0 0 1 .081-4.24 4.091 4.091 0 0 1 3.538-2.05h17.612a2.555 2.555 0 0 0 2.211-1.295l14.805-25.791c.225-.4.222-.89-.007-1.288a1.287 1.287 0 0 0-1.108-.645H69.53a4.091 4.091 0 0 1-3.533-2.06 4.138 4.138 0 0 1-.004-4.108 4.093 4.093 0 0 1 3.537-2.204h57.912a2.555 2.555 0 0 0 2.23-1.295l1.789-3.113c.336-.59.52-1.254.538-1.933H66.051L33 115.44c.624.366 1.334.56 2.057.56h62.007a4.071 4.071 0 0 0 3.442-1.933l.096-.136z"/></g></svg>