<svg xmlns="http://www.w3.org/2000/svg" viewBox="0 0 64 61.1"><path d="M26.6 44.6c-1.2 2.4-3.5 4.1-6.2 4.9-4.1.9-8.1.4-11-1.4C7.6 46.9 6 45 5 42.9l6.2-3.8c.1 0 .2.3.5.7.8 1.3 1.5 2.3 2.8 3 1.3.5 4.3.7 5.4-1.6.7-1.2.5-5 .5-9.2V12.2H28c0 7.2.1 14 0 21.1 0 4.3.4 8.1-1.4 11.3zm31.9-2.1C55.8 51.6 41 51.9 35 45.9c-1.2-1.4-2-2.2-2.8-3.8l6.2-3.6c1.6 2.6 3.2 4 6 4.5 3.7.5 7.5-.9 6.7-4.9-.9-3.3-7.7-4.1-12.4-7.5-4.7-3.1-5.8-10.9-2-15.3 1.3-1.6 3.5-2.8 5.8-3.4l2.5-.3c4.7-.1 7.5 1.1 9.7 3.5.6.6 1 1.2 2 2.6-2.5 1.6-2.5 1.6-6 3.9-.8-1.6-2-2.6-3.3-3.1-2-.7-4.7.1-5.2 2.2-.2.7-.1 1.3.1 2.4.9 1.9 3.6 2.8 6.2 3.9 7.2 3 9.7 6.1 10.3 9.8.6 3.2-.1 5.3-.3 5.7z" fill="#fff"/></svg>