<svg width="188" height="30" xmlns="http://www.w3.org/2000/svg"><g fill="#FFF"><path d="M106.775 22.264h.148c.543 0 .984-.44.984-.984V9.02a.984.984 0 0 0-.984-.984h-.148a.984.984 0 0 0-.983.984v12.25a.984.984 0 0 0 .983.994zM93.802 9.689a4.48 4.48 0 0 1 3.275 1.44c.308.348.811.443 1.225.232a.984.984 0 0 0 .265-1.574 6.295 6.295 0 0 0-4.775-2.002c-4.141 0-7.377 2.99-7.377 7.377s3.246 7.377 7.377 7.377a6.285 6.285 0 0 0 4.765-2.001.984.984 0 0 0-.265-1.574 1.018 1.018 0 0 0-1.225.231 4.485 4.485 0 0 1-3.275 1.441c-2.951 0-5.189-2.287-5.189-5.464 0-3.177 2.228-5.483 5.199-5.483zM72.984 9.26l-4.589 11.542a1.067 1.067 0 0 0 .984 1.476h.132c.436-.005.825-.273.984-.679l.885-2.267h4.707l-.364-.984a1.372 1.372 0 0 0-1.289-.905h-2.459l2.78-7.214 4.307 11.375c.156.41.546.683.984.688h.123a1.067 1.067 0 0 0 .983-1.475L76.57 9.275a1.967 1.967 0 0 0-1.825-1.239 1.967 1.967 0 0 0-1.76 1.225zM50.36 8.02c-.59 0-1.068.478-1.068 1.068v12.108a1.067 1.067 0 1 0 2.134 0V15.9h5.735v-.526c0-.758-.614-1.372-1.372-1.372h-4.362V9.084A1.067 1.067 0 0 0 50.35 8.02h.01zm10.013 14.263c.59 0 1.067-.478 1.067-1.068V9.09a1.067 1.067 0 0 0-2.134 0v12.108c0 .585.471 1.062 1.057 1.067l.01.02zm108.713-7.28a.94.94 0 0 0-.94-.938h-2.158c-.758 0-1.373.614-1.373 1.372v.492h3.532a.94.94 0 0 0 .939-.925zM114.333 8.02a.984.984 0 0 0-.762.354l-4.652 5.518a1.372 1.372 0 0 0 0 1.756l5.13 6.251a.982.982 0 0 0 .766.364h.035a.984.984 0 0 0 .757-1.638l-4.952-5.872 4.426-5.1a.984.984 0 0 0-.748-1.633zm46.023 14.263h8.627a.94.94 0 0 0 0-1.879h-6.492V9.9h6.492a.94.94 0 0 0 0-1.879h-8.627v14.263zm21.61-8.43c-1.77-.447-3.31-.856-3.31-2.134 0-1.195 1.087-2.007 2.67-2.007a5.759 5.759 0 0 1 3.443 1.048.984.984 0 0 0 1.353-.222.984.984 0 0 0-.167-1.396 7.269 7.269 0 0 0-4.426-1.333c-2.951 0-5.041 1.706-5.041 4.057 0 2.907 2.645 3.566 4.918 4.166 1.814.492 3.442.895 3.442 2.39 0 1.023-.811 2.198-3.118 2.198a5.956 5.956 0 0 1-3.742-1.308.984.984 0 0 0-1.402.197l-.035.049a.984.984 0 0 0 .138 1.333 7.55 7.55 0 0 0 4.958 1.633c3.84 0 5.38-2.07 5.38-4.294-.04-3.034-2.754-3.757-5.06-4.377zM126.791 9.26l-4.554 11.464a1.126 1.126 0 0 0 1.047 1.539c.463 0 .878-.283 1.048-.713l.87-2.233h4.707l-.364-.984a1.372 1.372 0 0 0-1.289-.904h-2.459l2.779-7.215 4.293 11.336a1.126 1.126 0 1 0 2.1-.811l-4.554-11.465a1.967 1.967 0 0 0-1.824-1.239 1.967 1.967 0 0 0-1.8 1.225zm19.859 7.411h4.569v2.562a5.523 5.523 0 0 1-3.61 1.422c-2.951 0-5.189-2.307-5.189-5.489s2.223-5.464 5.189-5.464a4.955 4.955 0 0 1 3.408 1.363.984.984 0 1 0 1.382-1.397 6.64 6.64 0 0 0-4.795-1.86c-4.077 0-7.377 2.927-7.377 7.378 0 4.45 3.31 7.377 7.377 7.377a7.589 7.589 0 0 0 5.075-1.86c.432-.387.676-.943.67-1.524v-3.014a1.372 1.372 0 0 0-1.383-1.373h-3.934c-.758 0-1.372.615-1.372 1.373l-.01.506zM34.18 15.167a1.043 1.043 0 0 0-.137-.53L26.134.933a1.048 1.048 0 0 0-.904-.52h-.586a.33.33 0 0 0-.285.49l6.708 11.652a1.048 1.048 0 0 1-.905 1.569h-.024c-.373 0-.718-.2-.905-.522l-2.248-3.895a.654.654 0 0 0-.565-.33h-7.584a.33.33 0 0 0-.285.492l1.549 2.686a1.048 1.048 0 0 1-.92 1.564c-.373 0-.718-.198-.905-.522L10.87.738a.654.654 0 0 0-.57-.33h-.89a1.052 1.052 0 0 0-.9.526L.574 14.631a1.043 1.043 0 0 0 0 1.048l.305.55a.33.33 0 0 0 .566 0L8.189 4.56a1.043 1.043 0 0 1 1.81 0c.185.323.185.72 0 1.043L7.75 9.497a.654.654 0 0 0 0 .654l3.801 6.57a.33.33 0 0 0 .566 0l1.55-2.685a1.048 1.048 0 0 1 1.809 0c.188.324.188.724 0 1.048L8.051 27.969a.654.654 0 0 0 0 .659l.442.772c.188.322.532.521.905.521H25.24a1.04 1.04 0 0 0 .88-.491v-.04l.29-.492a.33.33 0 0 0-.284-.491H12.703a1.043 1.043 0 0 1-.9-1.594 1.05 1.05 0 0 1 .905-.521h4.505a.655.655 0 0 0 .566-.33l3.787-6.56a.33.33 0 0 0-.286-.492h-3.083a1.048 1.048 0 0 1-.905-1.569c.177-.338.524-.552.905-.56H33.01a.654.654 0 0 0 .57-.33l.458-.792c.086-.15.133-.319.137-.492h.005z"/><path d="M8.508.934L.575 14.631a1.043 1.043 0 0 0 0 1.048l.305.55a.33.33 0 0 0 .566 0L8.189 4.56a1.043 1.043 0 0 1 1.81 0c.185.323.185.72 0 1.043L7.75 9.497a.654.654 0 0 0 0 .654l3.801 6.57a.33.33 0 0 0 .566 0l1.55-2.685a1.048 1.048 0 0 1 1.809 0c.188.324.188.724 0 1.048L8.051 27.969a.654.654 0 0 0 0 .659l.442.772c.092.157.222.288.38.379l8.434-14.612L8.852.561a1.043 1.043 0 0 0-.344.373z"/><path d="M10.426 19.013l-3.787-6.56a.33.33 0 0 0-.565 0l-3.502 6.024a.654.654 0 0 0 0 .66l3.792 6.565a.33.33 0 0 0 .566 0l3.496-6.03a.654.654 0 0 0 0-.659zm23.617-4.382L26.134.934a1.048 1.048 0 0 0-.904-.52h-.586a.33.33 0 0 0-.285.49l6.708 11.652a1.048 1.048 0 0 1-.905 1.569h-.024c-.373 0-.718-.2-.905-.522l-2.248-3.895a.654.654 0 0 0-.565-.33h-7.584a.33.33 0 0 0-.285.492l1.549 2.686a1.048 1.048 0 0 1-.92 1.564c-.373 0-.718-.198-.905-.522L10.87.738a.654.654 0 0 0-.57-.33h-.89c-.19 0-.375.05-.537.148l8.435 14.606H34.18a1.043 1.043 0 0 0-.137-.53z"/><path d="M16.859 6.94c.117.204.335.33.57.329h7.58a.33.33 0 0 0 .284-.492L21.851.743a.654.654 0 0 0-.57-.33h-7.599a.33.33 0 0 0-.285.492l3.462 6.034zm14.759 11.965h-6.94a.654.654 0 0 0-.57.33l-3.787 6.56a.33.33 0 0 0 .286.492h6.949a.654.654 0 0 0 .57-.33l3.777-6.565a.33.33 0 0 0-.285-.487z"/><path d="M26.144 29.395l.29-.492a.33.33 0 0 0-.285-.492H12.728a1.043 1.043 0 0 1-.925-1.598 1.05 1.05 0 0 1 .905-.521h4.505a.655.655 0 0 0 .566-.33l3.787-6.56a.33.33 0 0 0-.286-.492h-3.083a1.048 1.048 0 0 1-.905-1.569c.177-.338.524-.552.905-.56H33.01a.654.654 0 0 0 .57-.33l.458-.792c.086-.15.133-.319.137-.492H17.307L8.852 29.78c.16.093.342.142.527.142h15.86a1.04 1.04 0 0 0 .88-.491l.025-.035z"/></g></svg>