<svg width="35" height="30" xmlns="http://www.w3.org/2000/svg"><g fill="#FFF"><path d="M34.18 15.167a1.043 1.043 0 0 0-.137-.53L26.134.933a1.048 1.048 0 0 0-.904-.52h-.586a.33.33 0 0 0-.285.49l6.708 11.652a1.048 1.048 0 0 1-.905 1.569h-.024c-.373 0-.718-.2-.905-.522l-2.248-3.895a.654.654 0 0 0-.565-.33h-7.584a.33.33 0 0 0-.285.492l1.549 2.686a1.048 1.048 0 0 1-.92 1.564c-.373 0-.718-.198-.905-.522L10.87.738a.654.654 0 0 0-.57-.33h-.89a1.052 1.052 0 0 0-.9.526L.574 14.631a1.043 1.043 0 0 0 0 1.048l.305.55a.33.33 0 0 0 .566 0L8.189 4.56a1.043 1.043 0 0 1 1.81 0c.185.323.185.72 0 1.043L7.75 9.497a.654.654 0 0 0 0 .654l3.801 6.57a.33.33 0 0 0 .566 0l1.55-2.685a1.048 1.048 0 0 1 1.809 0c.188.324.188.724 0 1.048L8.051 27.969a.654.654 0 0 0 0 .659l.442.772c.188.322.532.521.905.521H25.24a1.04 1.04 0 0 0 .88-.491v-.04l.29-.492a.33.33 0 0 0-.284-.491H12.703a1.043 1.043 0 0 1-.9-1.594 1.05 1.05 0 0 1 .905-.521h4.505a.655.655 0 0 0 .566-.33l3.787-6.56a.33.33 0 0 0-.286-.492h-3.083a1.048 1.048 0 0 1-.905-1.569c.177-.338.524-.552.905-.56H33.01a.654.654 0 0 0 .57-.33l.458-.792c.086-.15.133-.319.137-.492h.005z"/><path d="M8.508.934L.575 14.631a1.043 1.043 0 0 0 0 1.048l.305.55a.33.33 0 0 0 .566 0L8.189 4.56a1.043 1.043 0 0 1 1.81 0c.185.323.185.72 0 1.043L7.75 9.497a.654.654 0 0 0 0 .654l3.801 6.57a.33.33 0 0 0 .566 0l1.55-2.685a1.048 1.048 0 0 1 1.809 0c.188.324.188.724 0 1.048L8.051 27.969a.654.654 0 0 0 0 .659l.442.772c.092.157.222.288.38.379l8.434-14.612L8.852.561a1.043 1.043 0 0 0-.344.373z"/><path d="M10.426 19.013l-3.787-6.56a.33.33 0 0 0-.565 0l-3.502 6.024a.654.654 0 0 0 0 .66l3.792 6.565a.33.33 0 0 0 .566 0l3.496-6.03a.654.654 0 0 0 0-.659zm23.617-4.382L26.134.934a1.048 1.048 0 0 0-.904-.52h-.586a.33.33 0 0 0-.285.49l6.708 11.652a1.048 1.048 0 0 1-.905 1.569h-.024c-.373 0-.718-.2-.905-.522l-2.248-3.895a.654.654 0 0 0-.565-.33h-7.584a.33.33 0 0 0-.285.492l1.549 2.686a1.048 1.048 0 0 1-.92 1.564c-.373 0-.718-.198-.905-.522L10.87.738a.654.654 0 0 0-.57-.33h-.89c-.19 0-.375.05-.537.148l8.435 14.606H34.18a1.043 1.043 0 0 0-.137-.53z"/><path d="M16.859 6.94c.117.204.335.33.57.329h7.58a.33.33 0 0 0 .284-.492L21.851.743a.654.654 0 0 0-.57-.33h-7.599a.33.33 0 0 0-.285.492l3.462 6.034zm14.759 11.965h-6.94a.654.654 0 0 0-.57.33l-3.787 6.56a.33.33 0 0 0 .286.492h6.949a.654.654 0 0 0 .57-.33l3.777-6.565a.33.33 0 0 0-.285-.487z"/><path d="M26.144 29.395l.29-.492a.33.33 0 0 0-.285-.492H12.728a1.043 1.043 0 0 1-.925-1.598 1.05 1.05 0 0 1 .905-.521h4.505a.655.655 0 0 0 .566-.33l3.787-6.56a.33.33 0 0 0-.286-.492h-3.083a1.048 1.048 0 0 1-.905-1.569c.177-.338.524-.552.905-.56H33.01a.654.654 0 0 0 .57-.33l.458-.792c.086-.15.133-.319.137-.492H17.307L8.852 29.78c.16.093.342.142.527.142h15.86a1.04 1.04 0 0 0 .88-.491l.025-.035z"/></g></svg>