<svg width="64" height="64" xmlns="http://www.w3.org/2000/svg"><g transform="matrix(-1 0 0 1 64 0)" fill="#FFF" fill-rule="evenodd"><ellipse transform="rotate(-45 31.458 30.897)" cx="31.458" cy="30.897" rx="5.424" ry="5.517"/><path d="M43.558 28.992C39.207 13.21 30.505 1.762 24.122 3.423c-6.383 1.661-8.033 15.805-3.68 31.585 4.351 15.782 13.053 27.23 19.436 25.569 6.383-1.661 8.033-15.805 3.68-31.585m-20.18 5.253c-3.942-14.297-2.483-26.822 1.558-27.874 4.04-1.05 11.748 9.09 15.688 23.385 3.941 14.297 2.482 26.823-1.559 27.874-4.04 1.05-11.748-9.09-15.688-23.385"/><path d="M35.007 20.442c-15.782-4.35-29.922-2.703-31.584 3.68-1.66 6.383 9.787 15.085 25.57 19.436 15.782 4.35 29.922 2.703 31.584-3.68 1.66-6.383-9.787-15.085-25.57-19.436m-5.252 20.18C15.458 36.683 5.318 28.975 6.37 24.936c1.05-4.04 13.575-5.5 27.874-1.559 14.296 3.94 24.436 11.648 23.385 15.687-1.051 4.04-13.576 5.5-27.874 1.559"/><path d="M22.332 22.314C11.106 33.54 5.85 46.483 10.59 51.223c4.74 4.74 17.686-.52 28.91-11.744C50.723 28.253 55.981 15.31 51.241 10.57c-4.741-4.74-17.686.52-28.91 11.744m14.985 14.984c-10.17 10.17-21.637 14.826-24.636 11.827-3-3 1.656-14.465 11.827-24.636C34.678 14.32 46.145 9.664 49.144 12.662c3 3-1.656 14.466-11.827 24.636"/></g></svg>