<svg width="64" height="64" xmlns="http://www.w3.org/2000/svg"><path d="M58.69 29.256l-1.275 2.618a.243.243 0 0 0-.036.062l-.71 1.208-.537.832-1.053 1.4-.852.95c-.277.137-.397.493-.746.532l-.029-.11c.215-.258.397-.543.54-.847.22-.333.467-.653.548-1.059.141-.15.245-.332.301-.53a8.325 8.325 0 0 0 .64-1.588l.318-1.064c.229-.756.37-1.535.423-2.323.495-3.956-1.085-7.864-3.081-9.372.301.479.425.924.564 1.366.508 1.6.555 3.256.518 4.917-.042.148-.065.3-.07.453l-.375 2.412-.302 1.159-.535 1.601a1.014 1.014 0 0 0-.207.523l-.522 1.184-.426.85-.572 1.034-.72 1.177-.738 1.048-.644.837-.738.858-1.057 1.078-.642.625-1.278 1.057c-.317.23-.668.414-.957.727.454.11.922.15 1.387.115a6.522 6.522 0 0 0 1.929-.186c.334.007.666-.062.97-.2a4.893 4.893 0 0 0 1.596-.533 2.61 2.61 0 0 0 .93-.435c.323-.114.62-.29.875-.518l.47-.245c-.032.253-.278.355-.39.55l-.645.616-.944.792-1.076.805-.54.39-.727.48-.746.443-.651.367-.634.323-.854.421-1.155.474-.851.312-.865.292a5.56 5.56 0 0 0-1.183.311c-.361.02-.717.09-1.058.212a3.267 3.267 0 0 0-.939.125l-1.544.1c.86.801 1.647 1.476 2.595 1.937.555.374 1.17.65 1.819.816a4.927 4.927 0 0 0 1.695.442c.229.122.478.1.723.094a.604.604 0 0 0 .055.024c.391.156.84-.08 1.218.165-.21.01-.424 0-.613.118-.29-.023-.566.056-.845.121l-1.853.161a1.336 1.336 0 0 0-.3.026.06.06 0 0 0-.082.01l-.32.007h-.85l-.42-.008a.249.249 0 0 0-.2-.047c-.13.021-.286-.032-.414-.012l-1.305-.126-1.064-.213-1.484-.428-1.385-.538-1.276-.616-2.11-1.201c-1.568-1.1-3.126-2.217-4.508-3.556-.638-.619-1.38-1.136-1.877-1.9-.034-.054-.242-.306-.2.06-.008.215-.034.433.078.634.014.209.04.417.076.623.394 1.745 1.329 3.196 2.48 4.535.375.437.863.774 1.146 1.29-1.808-.742-3.387-1.83-4.786-3.172-.537-.515-.985-1.124-1.473-1.69-.1-.292-.302-.517-.502-.748l-.752-1.269-.867-2.008-.336-1.276-.301-1.585-.027-.43a1.624 1.624 0 0 0-.04-.56.43.43 0 0 0-.03-.089l-.013-.722v-.636l.018-.51c.08-.32.108-.649.086-.977.09-.302.132-.617.122-.933a.628.628 0 0 0 .052-.242l.244-1.15.152-.622.266-.76.346-.83.533-.965c.16-.2.329-.387.402-.637.107-.145.29-.23.34-.422l.538-.634.414-.427.773-.73.946-.746c.233-.105.445-.25.627-.429a2.22 2.22 0 0 0 .67-.408 1.71 1.71 0 0 0 .603-.332l1.092-.52c.29-.07.567-.182.823-.333l1.808-.55.728.274 1.081.471c.438.235.9.423 1.378.562.332.191.692.33 1.067.413.183.147.413.181.627.254.166.1.335.193.54.175.371.185.766.32 1.174.4a3.62 3.62 0 0 0 1.062.33c.223.147.488.167.736.242 1.004.317 2.017.6 3.07.716.166.113.353.106.54.1.45.141.919.214 1.39.217.301.13.629.1.95.1a.84.84 0 0 0 .265.057c.444.074.893.04 1.341.027.474.01.951.07 1.418-.072l.503-.037c.473-.034.939-.14 1.38-.313a4.088 4.088 0 0 0 1.696-.843c1.11-.829 1.473-1.948 1.282-3.282-.01-.682-.223-1.306-.533-1.902-.195-.4-.301-.836-.603-1.179-.167-.447-.515-.771-.792-1.144-.22-.469-.574-.835-.936-1.194a6.343 6.343 0 0 0-1.184-1.23 23.7 23.7 0 0 0-4.663-3.643 1.845 1.845 0 0 0-.651-.4c-.295-.217-.59-.436-.96-.516l-1.47-.784a6.585 6.585 0 0 0-1.4-.607 5.979 5.979 0 0 0-1.47-.539 4.97 4.97 0 0 0-1.392-.418 4.99 4.99 0 0 0-1.373-.315.403.403 0 0 0-.075-.025 3.389 3.389 0 0 0-1.114-.186c-.413-.138-.843-.157-1.273-.18l-.631-.03a1.293 1.293 0 0 0-.329-.06c-.594-.075-1.198.021-1.793-.05-1.284-1.3-2.83-2.11-4.655-2.301-1.995-.208-3.759.269-5.066 1.922-.401.513-.856.988-1.288 1.478-1.138 1.297-2.48 2.177-4.285 2.234a7.34 7.34 0 0 0-2.378.5c-1.356.519-2.16 1.466-2.36 2.925-.117.846-.07 1.691-.09 2.536-.036 1.375-.421 2.544-1.613 3.386-.736.523-1.358 1.188-1.954 1.869-.824.94-1.107 2.01-.824 3.24.217.947.54 1.86.83 2.784.435 1.401.501 2.77-.503 3.959-.965 1.142-.85 2.285-.17 3.471.654 1.14 1.507 2.127 2.423 3.063.289.335.334.787.563 1.15l.201.449c.062.182.113.369.188.545 3.214 7.55 8.788 12.651 16.389 15.622a26.04 26.04 0 0 0 8.725 1.801h1.174c1.103.057 2.209-.01 3.297-.2.434-.013.866-.037 1.276-.205.301.041.57-.074.85-.132l1.276-.314 1.057-.308.638-.213c.332-.1.67-.194.97-.379.414-.134.83-.26 1.172-.547.133.027.209-.081.31-.13a.64.64 0 0 0 .414-.2c.238-.062.46-.176.646-.336a5.409 5.409 0 0 0 1.179-.7c.336-.107.52-.437.839-.57l.547-.376a3.34 3.34 0 0 0 .853-.657c.414-.278.796-.6 1.138-.963.292-.204.55-.453.764-.738.173-.106.318-.25.425-.423a1.04 1.04 0 0 0 .401-.428.691.691 0 0 0 .34-.42c.202-.147.403-.3.513-.535a6.05 6.05 0 0 0 .857-1.058c.278-.288.52-.61.72-.956l.634-.949a8.677 8.677 0 0 0 .888-1.591 8.77 8.77 0 0 0 .996-2.56l-1.957 1.477-1.285.832-.833.491-.956.52-1.38.632-.64.231-.643.206-.851.213-.732.077c.09-.187.344-.13.448-.3.227-.054.437-.164.61-.321.297-.17.632-.271.875-.527.186-.075.366-.16.478-.34a4.082 4.082 0 0 0 1.105-.807c.326-.21.62-.464.872-.758a4.22 4.22 0 0 0 .744-.741c.36-.312.674-.672.934-1.07.318-.319.592-.678.815-1.069.167-.292.443-.514.548-.846.21-.259.38-.546.507-.853.275-.467.54-.94.703-1.463.3-.576.53-1.185.687-1.814l.322-1.171c.166-.623.274-1.26.324-1.902a13.11 13.11 0 0 0-.2-4.533zM38.462 16.813c.668 0 1.21.54 1.21 1.207a1.21 1.21 0 0 1-1.21 1.207 1.21 1.21 0 0 1-1.212-1.207 1.21 1.21 0 0 1 1.212-1.207z" fill="#FFF"/></svg>