<svg version="1" xmlns="http://www.w3.org/2000/svg" width="256" height="256" viewBox="0 0 192 192"><path d="M47.1 13.8c-2.3 1.8-4.1 3.7-4.1 4.1 0 .4-9.4 17-20.9 36.9C10.5 74.7.9 92.3.6 94c-.3 2.2.6 5.1 3.2 10.3 1.9 4 3.9 7.3 4.4 7.5.4.2.8.8.8 1.3 0 .4 4.7 8.8 10.4 18.6C25 141.5 33 155.1 36.9 162c7.6 13.1 10.6 17 12.8 17 .7 0 1.3.4 1.3 1 0 1.5 11.3 1.2 12.9-.2.8-.8 1.1-.8.8-.2-.5.8 2.1 1.2 8.9 1.2 7.1.1 9.3-.2 8.7-1.1-.5-.9-.3-.9.9.1 1.8 1.4 6.7 1.3 8.7-.2 1.1-.8 1.3-.8.8 0-.9 1.6 17.1 1.8 19.1.2 1-.8 1.3-.8.9-.2-.5.8 3.3 1.2 13.8 1.2 8.6.1 14.5-.3 14.5-.8 0-.6.6-1 1.3-1 2.1-.1 5.1-3.3 9-9.8 2-3.5 3.7-6.5 3.7-6.8 0-.2 1.6-2.8 3.5-5.8s3.5-5.7 3.5-6c0-.3 3.6-6.6 8-14.2 4.4-7.5 8-13.7 8-13.9 0-.2 1.8-3.3 4-6.9 7.9-13 10.2-18.4 9.4-21.9-.6-2.8-7.5-15.3-29.8-53.6-3.6-6.2-6.6-11.5-6.6-11.7 0-.2-1.4-2.7-3.2-5.6-3.8-6.4-7.7-10.8-9.5-10.8-.7 0-1.3-.4-1.3-.9s-1.1-.9-2.5-.9-2.2.5-1.8 1.1c.4.6.1.7-.8.1-2.2-1.4-12.1-1.6-11.3-.2.5.7.3.8-.7.2-2.3-1.4-8.1-1.5-7.3-.1.6.9.4.9-.7.1-2-1.6-20.1-1.6-19.3-.1.5.8.2.7-.7-.1-.7-.6-1.9-1.2-2.7-1.2-.8 0-1 .5-.6 1.2.6 1 .4 1-.7 0-1.7-1.5-4.3-1.6-3.3 0 .5.7.3.8-.7.2-2.2-1.4-12.1-1.6-11.3-.2.5.7.3.8-.7.2-2.3-1.4-8.1-1.5-7.3-.1.6.9.4.9-.7.1-.8-.7-4.7-1.2-9-1.1-7.2 0-7.9.2-11.8 3.5z"/></svg>