<svg width="139" height="16" xmlns="http://www.w3.org/2000/svg"><path d="M57.775 15.264h.148c.543 0 .984-.44.984-.984V2.02a.984.984 0 0 0-.984-.984h-.148a.984.984 0 0 0-.983.984v12.25a.984.984 0 0 0 .983.994zM44.802 2.689a4.48 4.48 0 0 1 3.275 1.44c.308.348.811.443 1.225.232a.984.984 0 0 0 .265-1.574A6.295 6.295 0 0 0 44.792.785c-4.141 0-7.377 2.99-7.377 7.377s3.246 7.377 7.377 7.377a6.285 6.285 0 0 0 4.765-2.001.984.984 0 0 0-.265-1.574 1.018 1.018 0 0 0-1.225.231 4.485 4.485 0 0 1-3.275 1.441c-2.951 0-5.189-2.287-5.189-5.464 0-3.177 2.228-5.483 5.199-5.483zM23.984 2.26l-4.589 11.542a1.067 1.067 0 0 0 .984 1.476h.132c.436-.005.825-.273.984-.679l.885-2.267h4.707l-.364-.984a1.372 1.372 0 0 0-1.289-.905h-2.459l2.78-7.214 4.307 11.375c.156.41.546.683.984.688h.123a1.067 1.067 0 0 0 .983-1.475L27.57 2.275a1.967 1.967 0 0 0-1.825-1.239 1.967 1.967 0 0 0-1.76 1.225zM1.36 1.02A1.07 1.07 0 0 0 .293 2.09v12.108a1.067 1.067 0 0 0 2.135 0V8.9h5.734v-.526c0-.758-.614-1.372-1.372-1.372H2.428V2.084A1.067 1.067 0 0 0 1.35 1.02h.01zm10.013 14.263c.59 0 1.067-.478 1.067-1.068V2.09a1.067 1.067 0 0 0-2.134 0v12.108c0 .585.471 1.062 1.057 1.067l.01.02zm108.713-7.28a.94.94 0 0 0-.94-.938h-2.158c-.758 0-1.373.614-1.373 1.372v.492h3.532a.94.94 0 0 0 .939-.925zM65.334 1.022a.984.984 0 0 0-.762.354L59.92 6.893a1.372 1.372 0 0 0 0 1.756l5.13 6.251a.982.982 0 0 0 .766.364h.035a.984.984 0 0 0 .757-1.638l-4.952-5.872 4.426-5.1a.984.984 0 0 0-.748-1.633zm46.023 14.263h8.627a.94.94 0 0 0 0-1.88h-6.492V2.9h6.492a.94.94 0 0 0 0-1.879h-8.627v14.263zm21.61-8.43c-1.77-.447-3.31-.856-3.31-2.134 0-1.195 1.087-2.007 2.67-2.007a5.759 5.759 0 0 1 3.443 1.048.984.984 0 0 0 1.353-.222.984.984 0 0 0-.167-1.396A7.269 7.269 0 0 0 132.53.81c-2.951 0-5.041 1.706-5.041 4.057 0 2.907 2.645 3.566 4.918 4.166 1.814.492 3.442.895 3.442 2.39 0 1.023-.811 2.198-3.118 2.198a5.956 5.956 0 0 1-3.742-1.308.984.984 0 0 0-1.402.197l-.035.049a.984.984 0 0 0 .138 1.333 7.55 7.55 0 0 0 4.958 1.633c3.84 0 5.38-2.07 5.38-4.294-.04-3.034-2.754-3.757-5.06-4.377zM77.792 2.261l-4.554 11.464a1.126 1.126 0 0 0 2.095.826l.87-2.233h4.707l-.364-.984a1.372 1.372 0 0 0-1.289-.904h-2.459l2.779-7.215L83.87 14.55a1.126 1.126 0 1 0 2.1-.812L81.416 2.275a1.967 1.967 0 0 0-1.824-1.239 1.967 1.967 0 0 0-1.8 1.225zM97.65 9.672h4.569v2.562a5.523 5.523 0 0 1-3.61 1.422c-2.951 0-5.189-2.307-5.189-5.489s2.223-5.464 5.189-5.464a4.955 4.955 0 0 1 3.408 1.363.984.984 0 1 0 1.382-1.397 6.64 6.64 0 0 0-4.795-1.86c-4.077 0-7.377 2.927-7.377 7.378 0 4.45 3.31 7.377 7.377 7.377a7.589 7.589 0 0 0 5.075-1.86c.432-.387.676-.943.67-1.524V9.166a1.372 1.372 0 0 0-1.383-1.373h-3.934c-.758 0-1.372.615-1.372 1.373l-.01.506z" fill="#FFF"/></svg>