<svg id="Calque_1" xmlns="http://www.w3.org/2000/svg" xmlns:xlink="http://www.w3.org/1999/xlink" viewBox="0 0 81.8 77.6"><style>.st1{fill:#fff}</style><defs><path id="SVGID_1_" d="M76.6 54.1c-3.4 11.7-22.5 12.1-30 4.4-1.6-1.9-2.6-2.9-3.6-4.9 4-2.4 4-2.4 8-4.6 2.1 3.3 4.1 5.1 7.6 5.8 4.8.6 9.6-1.1 8.6-6.2-1.1-4.2-9.9-5.2-15.8-9.6-6-4-7.5-13.9-2.5-19.5 2-2.2 4.6-3.7 7.5-4.4l3.1-.4c6-.1 9.7 1.4 12.4 4.5.9 1 1.8 2.2 2.5 3.4-3.2 2-3.2 2-7.7 5-.8-1.9-2.4-3.3-4.3-4-2.6-.8-6 .1-6.6 2.9-.2 1-.2 2.1.2 3.1 1.1 2.4 4.6 3.5 7.9 4.9 9.2 3.8 12.4 7.8 13.2 12.6.4 2.2.3 4.7-.5 7z"/></defs><use xlink:href="#SVGID_1_" overflow="visible" fill="#fff"/><clipPath id="SVGID_2_"><use xlink:href="#SVGID_1_" overflow="visible"/></clipPath><g clip-path="url(#SVGID_2_)"><path class="st1" d="M36.6 8.1h47V70h-47z"/></g><path class="st1" d="M40.5 14.9H5.2c-.2 0-.3.2-.3.3v8.1c0 .2.2.3.3.3h12.2c.2 0 .3.2.3.3v39.2c0 .2.2.3.3.3h9.3c.2 0 .3-.2.3-.3V24c0-.2.2-.3.3-.3h12.5c.2 0 .3-.2.3-.3v-8.1c.2-.2 0-.4-.2-.4z"/></svg>