<?xml version="1.0" encoding="UTF-8"?>
<svg width="64px" height="64px" viewBox="0 0 64 64" version="1.1" xmlns="http://www.w3.org/2000/svg" xmlns:xlink="http://www.w3.org/1999/xlink">
    <!-- Generator: Sketch Beta 48 (47110) - http://www.bohemiancoding.com/sketch -->
    <title>logo/C#</title>
    <desc>Created with Sketch Beta.</desc>
    <defs></defs>
    <g id="Symbols" stroke="none" stroke-width="1" fill="none" fill-rule="evenodd">
        <g id="logo/C#" fill="#FFFFFF">
            <path d="M30.3691796,7.06612731 L30.3691796,7.08327978 C27.0502763,7.30969243 23.7963529,8.12820847 20.9579849,9.54560312 C11.0942165,14.4713647 5.69551395,24.5642232 7.27050922,35.1402668 C7.76027718,38.4281387 9.11404154,41.9318745 10.9456154,44.6545724 C11.3052476,45.1888719 11.6314664,45.658764 11.6666383,45.6930689 C11.7018101,45.7273738 12.0253911,46.130457 12.3709545,46.5808809 C13.2353026,47.7057401 15.4214087,49.8413946 16.7674353,50.8689993 C20.555619,53.7609064 25.5365679,55.6176616 30.4721452,55.9778636 C31.5270368,56.0550497 34.8097131,55.9178299 35.9162194,55.7600271 C36.4543486,55.682841 37.1068743,55.5773533 37.3759389,55.5087434 C37.6450036,55.4401335 38.1769777,55.3132052 38.5609664,55.2240123 C43.0558404,54.1832003 47.69615,51.4352882 51.0462684,47.8203187 C51.9430625,46.8526619 53.1435655,45.3080816 53.6394886,44.4701833 L54,43.8501214 L48.7963253,40.9187637 C45.9386128,39.3105477 43.5044573,37.9711111 43.3866316,37.9539586 C43.2617716,37.9368061 42.9672073,38.2283982 42.6823154,38.6409152 C41.2996222,40.643638 38.8854267,42.4196051 36.4654278,43.2137646 C34.7085941,43.7900877 34.2475791,43.850979 32.2062931,43.8501214 C29.9481726,43.8486634 28.7137287,43.6031258 26.9339454,42.8115391 C25.6045375,42.2206364 24.7433549,41.6447421 23.4305657,40.4497293 C21.1608385,38.3836281 19.7690886,35.4904346 19.5492645,32.37606 C19.1263231,26.3875311 23.0580079,21.106113 29.0978932,19.5117048 C30.5653506,19.1223437 33.7812004,19.0734591 35.1430543,19.4259425 C36.3554278,19.7432632 37.7120059,20.265556 38.6121414,20.7659794 C40.1276083,21.6081659 42.0036746,23.3307031 42.8196614,24.6185965 C42.9884863,24.8844599 43.2109482,25.0885743 43.3006364,25.0877167 C43.3903247,25.0868591 43.7754564,24.9144767 44.1597088,24.7026436 C44.9106277,24.2875538 47.3876929,22.901977 48.0753025,22.5083277 C48.3056781,22.3762537 49.1100582,21.917425 49.8785631,21.4865549 C50.6470679,21.0560278 51.5286502,20.5585203 51.8364039,20.3809922 C52.1441575,20.2034641 52.7680182,19.8629875 53.2103041,19.627141 C53.6525901,19.3912945 53.9999121,19.1588784 53.9999121,19.107421 C53.9999121,19.0559636 53.6596245,18.4993658 53.2270107,17.8678975 C50.1555413,13.3898155 45.4601878,9.90186 40.2264412,8.21963116 C37.0855954,7.21046538 33.6876433,6.83748484 30.3687399,7.06389749 L30.3691796,7.06612731 Z M53.4959644,26 L53.4959644,27.4959747 L52,27.4959747 L52,30.5039841 L53.4959644,30.5039841 L53.4959644,33.4960159 L52,33.4960159 L52,36.5040253 L53.4959644,36.5040253 L53.4959644,38 L56.5040356,38 L56.5040356,36.5040253 L59.4959644,36.5040253 L59.4959644,38 L62.5039532,38 L62.5039532,36.5040253 L64,36.5040253 L64,33.4960159 L62.5039532,33.4960159 L62.5039532,30.5039841 L64,30.5039841 L64,27.4959747 L62.5039532,27.4959747 L62.5039532,26 L59.4959644,26 L59.4959644,27.4959747 L56.5040356,27.4959747 L56.5040356,26 L53.4959644,26 Z M56,31 L59.26952,31 L59.26952,33.90632 L56,33.90632 L56,31 Z" id="path4212"></path>
        </g>
    </g>
</svg>