<?xml version="1.0" encoding="utf-8"?>
<!-- Generator: Adobe Illustrator 22.1.0, SVG Export Plug-In . SVG Version: 6.00 Build 0)  -->
<svg version="1.1" id="Calque_1" xmlns="http://www.w3.org/2000/svg" xmlns:xlink="http://www.w3.org/1999/xlink" x="0px" y="0px"
	 viewBox="0 0 100.9 75" style="enable-background:new 0 0 100.9 75;" xml:space="preserve">
<style type="text/css">
	.st0{clip-path:url(#SVGID_2_);}
	.st1{fill:#FFFFFF;}
</style>
<title>brandbook</title>
<g>
	<defs>
		<path id="SVGID_1_" d="M92.3,30.2c-2-1.3-6.5-1.8-9.9-1.1c-0.7-3.5-2.7-6.6-5.6-8.7L75,19.2l-1.3,2c-1.7,2.7-2.5,5.9-2.2,9.1
			c0.2,1.7,0.8,3.4,1.6,4.9c-2,1.1-4.2,1.6-6.5,1.5h-59l-0.2,0.7C7,40.6,7,50.9,13.5,58.7c5.1,6,12.6,9.1,22.4,9.1
			c21.3,0,37-9.8,44.4-27.7c2.9,0,9.2,0,12.3-6.2l0.9-1.6l0.4-0.7L92.3,30.2z M45.9,15.4h8.9V7.2h-8.9V15.4z M45.9,25.2h8.9V17h-8.9
			V25.2z M35.2,25.2h9V17h-9V25.2z M24.6,25.2h9V17h-9L24.6,25.2z M13.9,35h9v-8.2h-8.8L13.9,35z M24.6,35h9v-8.2h-9L24.6,35z
			 M35.2,35h9v-8.2h-9V35z M45.9,35h8.8v-8.2h-8.8L45.9,35z M56.5,35h8.8v-8.2h-9L56.5,35z"/>
	</defs>
	<clipPath id="SVGID_2_">
		<use xlink:href="#SVGID_1_"  style="overflow:visible;"/>
	</clipPath>
	<g class="st0">
		<rect y="0" class="st1" width="100.9" height="75"/>
	</g>
</g>
</svg>
