<svg id="Calque_1" data-name="Calque 1" xmlns="http://www.w3.org/2000/svg" xmlns:xlink="http://www.w3.org/1999/xlink" viewBox="0 0 82.96 82.17"><defs><style>.cls-1{fill:none;}.cls-2{clip-path:url(#clip-path);}.cls-3{fill:#fff;}.cls-4{clip-path:url(#clip-path-2);}.cls-5{clip-path:url(#clip-path-3);}.cls-6{clip-path:url(#clip-path-4);}.cls-7{clip-path:url(#clip-path-5);}.cls-8{clip-path:url(#clip-path-6);}.cls-9{clip-path:url(#clip-path-7);}.cls-10{clip-path:url(#clip-path-8);}</style><clipPath id="clip-path"><path class="cls-1" d="M11.14,55.24h54.1L38.19,10Zm58.07,2.22h-62l31-51.91Z"/></clipPath><clipPath id="clip-path-2"><path class="cls-1" d="M10.91,53.63,37.49,67.82,64.07,53.56V25.3L37.49,11,10.91,25.3ZM37.49,70.44,8.65,55V23.89L37.49,8.43,66.33,23.89V55Z"/></clipPath><clipPath id="clip-path-3"><circle class="cls-1" cx="10.09" cy="25.74" r="7.21"/></clipPath><clipPath id="clip-path-4"><circle class="cls-1" cx="64.89" cy="25.74" r="7.21"/></clipPath><clipPath id="clip-path-5"><circle class="cls-1" cx="64.89" cy="57.46" r="7.21"/></clipPath><clipPath id="clip-path-6"><circle class="cls-1" cx="10.09" cy="57.46" r="7.21"/></clipPath><clipPath id="clip-path-7"><circle class="cls-1" cx="38.93" cy="71.88" r="7.21"/></clipPath><clipPath id="clip-path-8"><circle class="cls-1" cx="38.93" cy="8.43" r="7.21"/></clipPath></defs><title>brandbook</title><g class="cls-2"><rect class="cls-3" y="-1.66" width="76.42" height="66.33"/></g><g class="cls-4"><rect class="cls-3" x="1.44" y="1.22" width="72.1" height="76.42"/></g><g class="cls-5"><rect class="cls-3" x="-4.33" y="11.32" width="28.84" height="28.84"/></g><g class="cls-6"><rect class="cls-3" x="50.47" y="11.32" width="28.84" height="28.84"/></g><g class="cls-7"><rect class="cls-3" x="50.47" y="43.04" width="28.84" height="28.84"/></g><g class="cls-8"><rect class="cls-3" x="-4.33" y="43.04" width="28.84" height="28.84"/></g><g class="cls-9"><rect class="cls-3" x="24.51" y="57.46" width="28.84" height="28.84"/></g><g class="cls-10"><rect class="cls-3" x="24.51" y="-5.99" width="28.84" height="28.84"/></g></svg>