<?xml version="1.0" encoding="utf-8"?>
<!-- Generator: Adobe Illustrator 22.0.1, SVG Export Plug-In . SVG Version: 6.00 Build 0)  -->
<svg version="1.1" id="Calque_1" xmlns="http://www.w3.org/2000/svg" xmlns:xlink="http://www.w3.org/1999/xlink" x="0px" y="0px"
	 viewBox="0 0 64 61.1" style="enable-background:new 0 0 64 61.1;" xml:space="preserve">
<style type="text/css">
	.st0{fill:#FFFFFF;}
</style>
<title>logo/js</title>
<desc>Created with Sketch Beta.</desc>
<g id="Symbols">
	<g id="logo_x2F_js">
		<path id="Shape" class="st0" d="M26.6,44.6c-1.2,2.4-3.5,4.1-6.2,4.9c-4.1,0.9-8.1,0.4-11-1.4C7.6,46.9,6,45,5,42.9l6.2-3.8
			c0.1,0,0.2,0.3,0.5,0.7c0.8,1.3,1.5,2.3,2.8,3c1.3,0.5,4.3,0.7,5.4-1.6c0.7-1.2,0.5-5,0.5-9.2c0-6.6,0-13.3,0-19.8H28
			c0,7.2,0.1,14,0,21.1C28,37.6,28.4,41.4,26.6,44.6z M58.5,42.5C55.8,51.6,41,51.9,35,45.9c-1.2-1.4-2-2.2-2.8-3.8
			c3.1-1.8,3.1-1.8,6.2-3.6c1.6,2.6,3.2,4,6,4.5c3.7,0.5,7.5-0.9,6.7-4.9c-0.9-3.3-7.7-4.1-12.4-7.5c-4.7-3.1-5.8-10.9-2-15.3
			c1.3-1.6,3.5-2.8,5.8-3.4l2.5-0.3c4.7-0.1,7.5,1.1,9.7,3.5c0.6,0.6,1,1.2,2,2.6c-2.5,1.6-2.5,1.6-6,3.9c-0.8-1.6-2-2.6-3.3-3.1
			c-2-0.7-4.7,0.1-5.2,2.2c-0.2,0.7-0.1,1.3,0.1,2.4c0.9,1.9,3.6,2.8,6.2,3.9c7.2,3,9.7,6.1,10.3,9.8C59.4,40,58.7,42.1,58.5,42.5z"
			/>
	</g>
</g>
</svg>
