<?xml version="1.0" encoding="UTF-8" standalone="no"?>
<svg width="188px" height="30px" viewBox="0 0 188 30" version="1.1" xmlns="http://www.w3.org/2000/svg" xmlns:xlink="http://www.w3.org/1999/xlink">
    <!-- Generator: Sketch 47.1 (45422) - http://www.bohemiancoding.com/sketch -->
    <title>Hackages_Logo horizontal 3 colors Copy</title>
    <desc>Created with Sketch.</desc>
    <defs></defs>
    <g id="Symbols" stroke="none" stroke-width="1" fill="none" fill-rule="evenodd">
        <g id="navmenu/visitor" transform="translate(-36.000000, -32.000000)" fill-rule="nonzero" fill="#FFFFFF">
            <g id="Hackages_Logo-horizontal-3-colors-Copy" transform="translate(36.000000, 32.000000)">
                <path d="M106.77541,22.2639344 L106.922951,22.2639344 C107.466182,22.2639344 107.906557,21.8235588 107.906557,21.2803279 L107.906557,9.01967213 C107.906557,8.47644123 107.466182,8.03606557 106.922951,8.03606557 L106.77541,8.03606557 C106.232179,8.03606557 105.791803,8.47644123 105.791803,9.01967213 L105.791803,21.2704918 C105.789177,21.5330605 105.891647,21.785779 106.076394,21.9723739 C106.261142,22.1589688 106.512828,22.2639476 106.77541,22.2639344 L106.77541,22.2639344 Z M93.8016393,9.68852459 C95.0461943,9.69307579 96.2327764,10.2151006 97.0770492,11.1295082 C97.3848931,11.4765878 97.8884584,11.5716383 98.3016393,11.3606557 L98.3016393,11.3606557 C98.5853718,11.2210581 98.7846881,10.9535625 98.8373053,10.6417563 C98.8899226,10.3299502 98.7894239,10.0118608 98.5672131,9.78688525 C97.3362025,8.465594 95.5970268,7.73660891 93.7918033,7.7852459 C89.6508197,7.7852459 86.4147541,10.7754098 86.4147541,15.1622951 C86.4147541,19.5491803 89.6606557,22.5393443 93.7918033,22.5393443 C95.5938708,22.5864155 97.3294031,21.8574561 98.557377,20.5377049 C98.7795878,20.3127293 98.8800866,19.9946399 98.8274693,19.6828338 C98.774852,19.3710277 98.5755358,19.1035321 98.2918033,18.9639344 L98.2918033,18.9639344 C97.8786224,18.7529519 97.375057,18.8480024 97.0672131,19.195082 C96.2225877,20.1089953 95.0362322,20.6309205 93.7918033,20.6360656 C90.8409836,20.6360656 88.6032787,18.3491803 88.6032787,15.1721311 C88.6032787,11.995082 90.8311475,9.68852459 93.8016393,9.68852459 Z M72.9836066,9.26065574 L68.395082,20.8032787 C68.2589318,21.132168 68.2957192,21.5072878 68.4931683,21.8034616 C68.6906175,22.0996353 69.0227329,22.2778698 69.3786885,22.2786885 L69.5114754,22.2786885 C69.9471434,22.2744463 70.3364879,22.0057986 70.495082,21.6 L71.3803279,19.3327869 L76.0868852,19.3327869 L75.7229508,18.3491803 C75.5264602,17.8066002 75.0114888,17.4449409 74.4344262,17.4442623 L71.9754098,17.4442623 L74.7540984,10.2295082 L79.0622951,21.604918 C79.2177333,22.0145829 79.6077779,22.2876141 80.0459016,22.2934426 L80.1688525,22.2934426 C80.524808,22.2926239 80.8569235,22.1143894 81.0543727,21.8182157 C81.2518218,21.5220419 81.2886092,21.1469221 81.152459,20.8180328 L76.5688525,9.27540984 C76.2712334,8.52811642 75.5486397,8.03729806 74.7442623,8.03606557 L74.7442623,8.03606557 C73.9669053,8.06033716 73.276823,8.54031057 72.9836066,9.26065574 L72.9836066,9.26065574 Z M50.3606557,8.02131148 L50.3606557,8.02131148 C49.7712502,8.02131148 49.2934426,8.49911906 49.2934426,9.08852459 L49.2934426,21.1967213 C49.2934426,21.7861268 49.7712502,22.2639344 50.3606557,22.2639344 L50.3606557,22.2639344 C50.9500613,22.2639344 51.4278689,21.7861268 51.4278689,21.1967213 L51.4278689,15.9 L57.1622951,15.9 L57.1622951,15.3737705 C57.1622951,14.6159634 56.547971,14.0016393 55.7901639,14.0016393 L51.4278689,14.0016393 L51.4278689,9.08360656 C51.4265726,8.79970498 51.3122088,8.52802082 51.1100783,8.32865923 C50.9079478,8.12929763 50.6347121,8.01869188 50.3508197,8.02131148 L50.3606557,8.02131148 Z M60.3737705,22.2836066 L60.3737705,22.2836066 C60.963176,22.2836066 61.4409836,21.805799 61.4409836,21.2163934 L61.4409836,9.08852459 C61.4409836,8.49911906 60.963176,8.02131148 60.3737705,8.02131148 L60.3737705,8.02131148 C59.784365,8.02131148 59.3065574,8.49911906 59.3065574,9.08852459 L59.3065574,21.1967213 C59.3065325,21.7823069 59.7783737,22.2585373 60.3639344,22.2639344 L60.3737705,22.2836066 Z M169.086885,15.004918 L169.086885,15.004918 C169.086885,14.7557884 168.987919,14.5168626 168.811758,14.3407013 C168.635596,14.1645401 168.396671,14.0655738 168.147541,14.0655738 L165.988525,14.0655738 C165.230717,14.0655738 164.616393,14.6798978 164.616393,15.4377049 L164.616393,15.9295082 L168.147541,15.9295082 C168.660619,15.9295715 169.078826,15.5179326 169.086885,15.004918 Z M114.334426,8.02131148 L114.334426,8.02131148 C114.040151,8.01936718 113.760465,8.14928603 113.572131,8.37540984 L108.919672,13.8934426 C108.49624,14.4020989 108.49624,15.140524 108.919672,15.6491803 L114.04918,21.9 C114.236685,22.1311391 114.518765,22.2649464 114.816393,22.2639344 L114.85082,22.2639344 C115.242441,22.2731011 115.602169,22.0490142 115.766597,21.6934655 C115.931025,21.3379168 115.868804,20.918694 115.608197,20.6262295 L110.655738,14.7540984 L115.081967,9.65409836 C115.337977,9.3627177 115.398845,8.94809342 115.237383,8.59542697 C115.075921,8.24276052 114.722282,8.01791056 114.334426,8.02131148 Z M160.357377,22.2836066 L168.983607,22.2836066 C169.502392,22.2836066 169.922951,21.8630478 169.922951,21.3442623 L169.922951,21.3442623 C169.922951,20.8254768 169.502392,20.404918 168.983607,20.404918 L162.491803,20.404918 L162.491803,9.9 L168.983607,9.9 C169.502392,9.9 169.922951,9.47944125 169.922951,8.96065574 L169.922951,8.96065574 C169.922951,8.44187023 169.502392,8.02131148 168.983607,8.02131148 L160.357377,8.02131148 L160.357377,22.2836066 Z M181.967213,13.8540984 C180.196721,13.4065574 178.657377,12.9983607 178.657377,11.7196721 C178.657377,10.5245902 179.744262,9.71311475 181.327869,9.71311475 C182.557843,9.68561265 183.7643,10.0527203 184.770492,10.7606557 C185.206982,11.0647594 185.806156,10.9667127 186.122951,10.5393443 L186.122951,10.5393443 C186.288912,10.3330931 186.364727,10.0686509 186.333259,9.80579663 C186.301791,9.54294238 186.165695,9.30386983 185.955738,9.14262295 C184.664659,8.22856393 183.110637,7.76063072 181.529508,7.80983607 C178.578689,7.80983607 176.488525,9.51639344 176.488525,11.8672131 C176.488525,14.7737705 179.134426,15.4327869 181.406557,16.0327869 C183.221311,16.5245902 184.84918,16.9278689 184.84918,18.4229508 C184.84918,19.4459016 184.037705,20.6213115 181.731148,20.6213115 C180.370815,20.6254652 179.050054,20.1638063 177.988525,19.3131148 C177.778274,19.1487162 177.510244,19.0768145 177.245941,19.1139097 C176.981639,19.1510048 176.743757,19.2939117 176.586885,19.5098361 L176.552459,19.5590164 C176.24189,19.9706883 176.301985,20.5523268 176.690164,20.8918033 C178.095935,22.0081615 179.85351,22.5870454 181.647541,22.5245902 C185.488525,22.5245902 187.027869,20.4540984 187.027869,18.2311475 C186.988525,15.1967213 184.27377,14.4737705 181.967213,13.8540984 Z M126.791803,9.26065574 L122.237705,20.7245902 C122.100996,21.0713067 122.144665,21.4632021 122.354343,21.7713205 C122.564021,22.0794388 122.912551,22.2638733 123.285246,22.2639344 L123.285246,22.2639344 C123.747723,22.2638586 124.163145,21.9810598 124.332787,21.5508197 L125.203279,19.3180328 L129.909836,19.3180328 L129.545902,18.3344262 C129.349411,17.7918461 128.83444,17.4301868 128.257377,17.4295082 L125.798361,17.4295082 L128.577049,10.2147541 L132.870492,21.5508197 C133.036018,21.9885379 133.454981,22.2782876 133.922951,22.2786885 L133.922951,22.2786885 C134.295646,22.2786274 134.644176,22.0941929 134.853854,21.7860746 C135.063532,21.4779562 135.107201,21.0860608 134.970492,20.7393443 L130.416393,9.27540984 C130.118774,8.52811642 129.396181,8.03729806 128.591803,8.03606557 L128.591803,8.03606557 C127.800028,8.04480287 127.090668,8.52740008 126.791803,9.26065574 L126.791803,9.26065574 Z M146.65082,16.6721311 L151.219672,16.6721311 L151.219672,19.2344262 C150.227857,20.1291321 148.945398,20.6340786 147.609836,20.6557377 C144.659016,20.6557377 142.421311,18.3491803 142.421311,15.1672131 C142.421311,11.9852459 144.644262,9.70327869 147.609836,9.70327869 C148.878452,9.70409663 150.098381,10.1917163 151.018033,11.0655738 C151.331823,11.3837544 151.820671,11.4504154 152.208197,11.2278689 L152.208197,11.2278689 C152.475551,11.0735022 152.65492,10.8025686 152.692617,10.4961595 C152.730314,10.1897504 152.621965,9.88341937 152.4,9.66885246 C151.11629,8.43016083 149.388118,7.76016171 147.604918,7.80983607 C143.527869,7.80983607 140.227869,10.7360656 140.227869,15.1868852 C140.227869,19.6377049 143.537705,22.5639344 147.604918,22.5639344 C149.467548,22.5882076 151.274039,21.9265279 152.680328,20.704918 C153.112463,20.3167796 153.356228,19.7611402 153.34918,19.1803279 L153.34918,16.1655738 C153.34919,15.7999513 153.203277,15.4494455 152.943821,15.1918363 C152.684365,14.9342272 152.332826,14.7908217 151.967213,14.7934426 L148.032787,14.7934426 C147.27498,14.7934426 146.660656,15.4077667 146.660656,16.1655738 L146.65082,16.6721311 Z" id="Shape"></path>
                <path d="M34.1803279,15.1672131 C34.1826736,14.9810445 34.1351253,14.7976439 34.042623,14.6360656 L26.1344262,0.93442623 C25.9470859,0.611966247 25.6024381,0.413419177 25.2295082,0.413114754 L24.6442623,0.413114754 C24.5273181,0.413654301 24.4194213,0.476137741 24.3607477,0.577299221 C24.302074,0.678460701 24.3014151,0.803142108 24.3590164,0.904918033 L31.0672131,12.5557377 C31.2528826,12.8793423 31.2524269,13.2772749 31.0660167,13.6004533 C30.8796066,13.9236318 30.5353786,14.1232757 30.1622951,14.1245902 L30.1377049,14.1245902 C29.764775,14.1242857 29.4201272,13.9257387 29.2327869,13.6032787 L26.9852459,9.70819672 C26.8691879,9.50514696 26.6535482,9.3795134 26.4196721,9.37868852 L18.8360656,9.37868852 C18.7191213,9.37922807 18.6112246,9.44171151 18.5525509,9.54287299 C18.4938773,9.64403447 18.4932184,9.76871588 18.5508197,9.8704918 L20.1,12.5557377 C20.2844848,12.8813198 20.2812777,13.2805876 20.0915865,13.6031641 C19.9018953,13.9257406 19.5545332,14.122628 19.1803279,14.1196721 L19.1803279,14.1196721 C18.8071273,14.1203805 18.4620098,13.9215628 18.2754098,13.5983607 L10.8688525,0.737704918 C10.7519223,0.533128326 10.5339946,0.407256332 10.2983607,0.408196721 L9.40819672,0.408196721 C9.03628861,0.412258065 8.69413969,0.612312353 8.50819672,0.93442623 L0.575409836,14.6311475 C0.387264271,14.9549837 0.387264271,15.3548524 0.575409836,15.6786885 L0.880327869,16.2295082 C0.939823329,16.3289812 1.04720709,16.3898797 1.16311475,16.3898797 C1.27902242,16.3898797 1.38640618,16.3289812 1.44590164,16.2295082 L8.18852459,4.55901639 C8.37424581,4.23448798 8.71952945,4.03426019 9.09344262,4.03426019 C9.4673558,4.03426019 9.81263944,4.23448798 9.99836066,4.55901639 L9.99836066,4.55901639 C10.1835988,4.88187456 10.1835988,5.27878118 9.99836066,5.60163934 L7.75081967,9.49672131 C7.63397625,9.69910005 7.63397625,9.94844094 7.75081967,10.1508197 L11.552459,16.7213115 C11.6119545,16.8207845 11.7193382,16.881683 11.8352459,16.881683 C11.9511536,16.881683 12.0585373,16.8207845 12.1180328,16.7213115 L13.6672131,14.0360656 C13.8549245,13.7141706 14.1995027,13.5162229 14.5721311,13.5162229 C14.9447596,13.5162229 15.2893378,13.7141706 15.4770492,14.0360656 L15.4770492,14.0360656 C15.6651947,14.3599017 15.6651947,14.7597704 15.4770492,15.0836066 L8.05081967,27.9688525 C7.93207379,28.1724773 7.93207379,28.424244 8.05081967,28.6278689 L8.49344262,29.4 C8.68078296,29.72246 9.0254307,29.9210071 9.39836066,29.9213115 L25.2393443,29.9213115 C25.5978213,29.919618 25.9302899,29.7338814 26.1196721,29.4295082 L26.1196721,29.3901639 L26.4098361,28.8983607 C26.4674373,28.7965847 26.4667785,28.6719033 26.4081048,28.5707418 C26.3494311,28.4695804 26.2415344,28.4070969 26.1245902,28.4065574 L26.1245902,28.4065574 L12.7032787,28.4065574 C12.321994,28.4119774 11.9681653,28.208816 11.7806337,27.8767929 C11.5931022,27.5447699 11.6017864,27.1368557 11.8032787,26.8131148 L11.8032787,26.8131148 C11.990619,26.4906548 12.3352668,26.2921077 12.7081967,26.2918033 L17.2131148,26.2918033 C17.4469908,26.2909784 17.6626305,26.1653448 17.7786885,25.9622951 L21.5655738,19.4016393 C21.623175,19.2998634 21.6225162,19.175182 21.5638425,19.0740205 C21.5051688,18.9728591 21.3972721,18.9103756 21.2803279,18.9098361 L18.1967213,18.9098361 C17.8236378,18.9085216 17.4794098,18.7088777 17.2929997,18.3856992 C17.1065895,18.0625208 17.1061338,17.6645882 17.2918033,17.3409836 L17.2918033,17.3409836 C17.4689303,17.003339 17.8155266,16.7886 18.1967213,16.7803279 L33.0098361,16.7803279 C33.24547,16.7812683 33.4633977,16.6553963 33.5803279,16.4508197 L34.0377049,15.6590164 C34.1236684,15.5090331 34.1709897,15.3400286 34.1754098,15.1672131 L34.1803279,15.1672131 Z" id="Shape"></path>
                <path d="M8.50819672,0.93442623 L0.575409836,14.6311475 C0.387264271,14.9549837 0.387264271,15.3548524 0.575409836,15.6786885 L0.880327869,16.2295082 C0.939823329,16.3289812 1.04720709,16.3898797 1.16311475,16.3898797 C1.27902242,16.3898797 1.38640618,16.3289812 1.44590164,16.2295082 L8.18852459,4.55901639 C8.37424581,4.23448798 8.71952945,4.03426019 9.09344262,4.03426019 C9.4673558,4.03426019 9.81263944,4.23448798 9.99836066,4.55901639 L9.99836066,4.55901639 C10.1835988,4.88187456 10.1835988,5.27878118 9.99836066,5.60163934 L7.75081967,9.49672131 C7.63397625,9.69910005 7.63397625,9.94844094 7.75081967,10.1508197 L11.552459,16.7213115 C11.6119545,16.8207845 11.7193382,16.881683 11.8352459,16.881683 C11.9511536,16.881683 12.0585373,16.8207845 12.1180328,16.7213115 L13.6672131,14.0360656 C13.8549245,13.7141706 14.1995027,13.5162229 14.5721311,13.5162229 C14.9447596,13.5162229 15.2893378,13.7141706 15.4770492,14.0360656 L15.4770492,14.0360656 C15.6651947,14.3599017 15.6651947,14.7597704 15.4770492,15.0836066 L8.05081967,27.9688525 C7.93207379,28.1724773 7.93207379,28.424244 8.05081967,28.6278689 L8.49344262,29.4 C8.58454693,29.5570484 8.71508271,29.6875842 8.87213115,29.7786885 L17.3065574,15.1672131 L8.85245902,0.560655738 C8.70863505,0.65494671 8.59036852,0.783350367 8.50819672,0.93442623 Z" id="Shape"></path>
                <path d="M10.4262295,19.0131148 L6.63934426,12.452459 C6.5798488,12.352986 6.47246504,12.2920875 6.35655738,12.2920875 C6.24064971,12.2920875 6.13326595,12.352986 6.07377049,12.452459 L2.57213115,18.4770492 C2.45338527,18.680674 2.45338527,18.9324407 2.57213115,19.1360656 L6.36393443,25.7016393 C6.42342989,25.8011123 6.53081365,25.8620108 6.64672131,25.8620108 C6.76262897,25.8620108 6.87001274,25.8011123 6.9295082,25.7016393 L10.4262295,19.6721311 C10.5449754,19.4685063 10.5449754,19.2167396 10.4262295,19.0131148 Z" id="Shape"></path>
                <path d="M34.042623,14.6311475 L26.1344262,0.93442623 C25.9470859,0.611966247 25.6024381,0.413419177 25.2295082,0.413114754 L24.6442623,0.413114754 C24.5273181,0.413654301 24.4194213,0.476137741 24.3607477,0.577299221 C24.302074,0.678460701 24.3014151,0.803142108 24.3590164,0.904918033 L31.0672131,12.5557377 C31.2528826,12.8793423 31.2524269,13.2772749 31.0660167,13.6004533 C30.8796066,13.9236318 30.5353786,14.1232757 30.1622951,14.1245902 L30.1377049,14.1245902 C29.764775,14.1242857 29.4201272,13.9257387 29.2327869,13.6032787 L26.9852459,9.70819672 C26.8691879,9.50514696 26.6535482,9.3795134 26.4196721,9.37868852 L18.8360656,9.37868852 C18.7191213,9.37922807 18.6112246,9.44171151 18.5525509,9.54287299 C18.4938773,9.64403447 18.4932184,9.76871588 18.5508197,9.8704918 L20.1,12.5557377 C20.2844848,12.8813198 20.2812777,13.2805876 20.0915865,13.6031641 C19.9018953,13.9257406 19.5545332,14.122628 19.1803279,14.1196721 L19.1803279,14.1196721 C18.8071273,14.1203805 18.4620098,13.9215628 18.2754098,13.5983607 L10.8688525,0.737704918 C10.7519223,0.533128326 10.5339946,0.407256332 10.2983607,0.408196721 L9.40819672,0.408196721 C9.21944737,0.407947548 9.03417066,0.45894114 8.87213115,0.555737705 L17.3065574,15.1622951 L34.1803279,15.1622951 C34.1826736,14.9761265 34.1351253,14.7927259 34.042623,14.6311475 Z" id="Shape"></path>
                <path d="M16.8590164,6.93934426 C16.9759466,7.14392085 17.1938742,7.26979285 17.4295082,7.26885246 L25.0081967,7.26885246 C25.1251409,7.26831291 25.2330377,7.20582947 25.2917113,7.10466799 C25.350385,7.00350651 25.3510439,6.87882511 25.2934426,6.77704918 L21.8508197,0.742622951 C21.7338895,0.538046358 21.5159618,0.412174365 21.2803279,0.413114754 L13.6819672,0.413114754 C13.565023,0.413654301 13.4571262,0.476137741 13.3984526,0.577299221 C13.3397789,0.678460701 13.3391201,0.803142108 13.3967213,0.904918033 L16.8590164,6.93934426 Z" id="Shape"></path>
                <path d="M31.6180328,18.904918 L24.6786885,18.904918 C24.4430546,18.9039776 24.2251269,19.0298496 24.1081967,19.2344262 L20.3213115,25.795082 C20.2637102,25.8968579 20.2643691,26.0215393 20.3230427,26.1227008 C20.3817164,26.2238623 20.4896132,26.2863457 20.6065574,26.2868852 L27.5557377,26.2868852 C27.7913717,26.2878256 28.0092993,26.1619536 28.1262295,25.957377 L31.9032787,19.3918033 C31.9584348,19.2903659 31.9564725,19.1674589 31.8981064,19.067834 C31.8397403,18.9682091 31.7334864,18.9064022 31.6180328,18.904918 L31.6180328,18.904918 Z" id="Shape"></path>
                <path d="M26.1442623,29.395082 L26.4344262,28.9032787 C26.4920275,28.8015028 26.4913686,28.6768214 26.432695,28.5756599 C26.3740213,28.4744984 26.2661246,28.412015 26.1491803,28.4114754 L26.1491803,28.4114754 L12.7278689,28.4114754 C12.3406135,28.4274537 11.9764551,28.2272991 11.7823831,27.8918023 C11.5883111,27.5563055 11.5963592,27.1408438 11.8032787,26.8131148 L11.8032787,26.8131148 C11.990619,26.4906548 12.3352668,26.2921077 12.7081967,26.2918033 L17.2131148,26.2918033 C17.4469908,26.2909784 17.6626305,26.1653448 17.7786885,25.9622951 L21.5655738,19.4016393 C21.623175,19.2998634 21.6225162,19.175182 21.5638425,19.0740205 C21.5051688,18.9728591 21.3972721,18.9103756 21.2803279,18.9098361 L18.1967213,18.9098361 C17.8236378,18.9085216 17.4794098,18.7088777 17.2929997,18.3856992 C17.1065895,18.0625208 17.1061338,17.6645882 17.2918033,17.3409836 L17.2918033,17.3409836 C17.4689303,17.003339 17.8155266,16.7886 18.1967213,16.7803279 L33.0098361,16.7803279 C33.24547,16.7812683 33.4633977,16.6553963 33.5803279,16.4508197 L34.0377049,15.6590164 C34.1236684,15.5090331 34.1709897,15.3400286 34.1754098,15.1672131 L17.3065574,15.1672131 L8.85245902,29.7786885 C9.01211367,29.872063 9.19373341,29.921287 9.37868852,29.9213115 L25.2393443,29.9213115 C25.5978213,29.919618 25.9302899,29.7338814 26.1196721,29.4295082 L26.1442623,29.395082 Z" id="Shape"></path>
            </g>
        </g>
    </g>
</svg>