<?xml version="1.0" encoding="UTF-8"?>
<svg width="64px" height="64px" viewBox="0 0 64 64" version="1.1" xmlns="http://www.w3.org/2000/svg" xmlns:xlink="http://www.w3.org/1999/xlink">
    <!-- Generator: Sketch Beta 48 (47110) - http://www.bohemiancoding.com/sketch -->
    <title>logo/react</title>
    <desc>Created with Sketch Beta.</desc>
    <defs></defs>
    <g id="Symbols" stroke="none" stroke-width="1" fill="none" fill-rule="evenodd">
        <g id="logo/react" fill="#FFFFFF">
            <g id="Group-4-Copy" transform="translate(32.000000, 32.000000) scale(-1, 1) translate(-32.000000, -32.000000) ">
                <ellipse id="Oval" transform="translate(31.457627, 30.896552) rotate(-45.000000) translate(-31.457627, -30.896552) " cx="31.4576271" cy="30.8965517" rx="5.42372881" ry="5.51724138"></ellipse>
                <path d="M42.299184,38.0458468 C50.3823351,23.8098182 52.3245599,9.56143853 46.6364165,6.2228504 C40.9482732,2.8833122 29.7802481,11.7181247 21.700816,25.9541532 C13.6176649,40.1901818 11.6754401,54.4385615 17.3635835,57.7771496 C23.0517268,61.1166878 34.2197519,52.2818753 42.299184,38.0458468 M24.3152421,27.4904358 C31.6378667,14.5940228 41.5265709,6.76914755 45.1274501,8.88307999 C48.7273996,10.9970124 47.0073824,23.6169515 39.6847579,36.5114643 C32.3621333,49.4078773 22.4734291,57.2327526 18.8725499,55.1188202 C15.2726004,53.0048877 16.9926176,40.3849486 24.3152421,27.4904358" id="Shape" transform="translate(32.000000, 32.000000) rotate(-45.000000) translate(-32.000000, -32.000000) "></path>
                <path d="M42.2990365,25.954085 C34.2160012,11.7178956 23.051855,2.88393344 17.3637931,6.22255927 C11.6757313,9.5621352 13.6169986,23.8097257 21.7009635,38.045915 C29.7839988,52.2821044 40.948145,61.1160666 46.6362069,57.7774407 C52.3242687,54.4378648 50.3830014,40.1902743 42.2990365,25.954085 M24.3153522,36.5096151 C16.9928326,23.6130565 15.27284,10.9929748 18.872738,8.88091871 C22.4726359,6.7669624 32.3611984,14.590976 39.6846478,27.4884847 C47.0071674,40.3850433 48.72716,53.005125 45.127262,55.1171811 C41.5273641,57.2311374 31.6388016,49.4071238 24.3153522,36.5096151" id="Shape" transform="translate(32.000000, 32.000000) rotate(-45.000000) translate(-32.000000, -32.000000) "></path>
                <path d="M30.9152542,18.7586207 C15.0391206,18.7586207 2.16949153,24.1928889 2.16949153,30.8965517 C2.16949153,37.6011683 15.0427726,43.0344828 30.9152542,43.0344828 C46.7913879,43.0344828 59.6610169,37.6002146 59.6610169,30.8965517 C59.6610169,24.1919351 46.7877359,18.7586207 30.9152542,18.7586207 M30.9152542,39.9501684 C16.5336994,39.9501684 5.13217217,35.1339075 5.13217217,30.8927369 C5.13217217,26.6496587 16.5318734,21.8353053 30.9152542,21.8353053 C45.2968091,21.8353053 56.6983363,26.6515662 56.6983363,30.8927369 C56.6983363,35.135815 45.2986351,39.9501684 30.9152542,39.9501684" id="Shape" transform="translate(30.915254, 30.896552) rotate(-45.000000) translate(-30.915254, -30.896552) "></path>
            </g>
        </g>
    </g>
</svg>