<?xml version="1.0" encoding="UTF-8"?>
<svg width="64px" height="64px" viewBox="0 0 64 64" version="1.1" xmlns="http://www.w3.org/2000/svg" xmlns:xlink="http://www.w3.org/1999/xlink">
    <!-- Generator: Sketch Beta 48 (47110) - http://www.bohemiancoding.com/sketch -->
    <title>logo/rxjs</title>
    <desc>Created with Sketch Beta.</desc>
    <defs></defs>
    <g id="Symbols" stroke="none" stroke-width="1" fill="none" fill-rule="evenodd">
        <g id="logo/rxjs" fill="#FFFFFF" fill-rule="nonzero">
            <g id="hackcamp_logo_rxjs" transform="translate(5.000000, 6.000000)">
                <path d="M53.6899621,23.2562805 L52.4154537,25.8741378 C52.4003892,25.8929242 52.3882045,25.9138331 52.3792975,25.9361819 L51.6692286,27.1440388 L51.1319063,27.9756288 L50.0793573,29.3766228 L49.226672,30.3252958 C48.9504783,30.4633938 48.8299574,30.8186459 48.4814512,30.8576736 L48.4523253,30.7485962 C48.6674712,30.49001 48.8487049,30.2051869 48.9916563,29.9009948 C49.2126112,29.5677584 49.4586747,29.2475312 49.5400263,28.8422437 C49.6813789,28.6918537 49.7846736,28.5100261 49.8413285,28.3118674 C50.1086531,27.805741 50.3230356,27.2735666 50.4810935,26.7237406 L50.7994695,25.6599859 C51.0275228,24.9040522 51.1693601,24.1249208 51.222297,23.337338 C51.7174369,19.3805308 50.1366047,15.4727583 48.1409797,13.9646883 C48.4422819,14.4440284 48.5658158,14.8893444 48.7054192,15.3306575 C49.2126112,16.9317934 49.2598153,18.5869678 49.2226546,20.2481463 C49.1813323,20.3959564 49.1577332,20.5481244 49.1523508,20.7014679 L48.7777317,23.113179 L48.4764295,24.2720012 L47.9411159,25.8731371 C47.8242519,26.0244272 47.7525463,26.2054711 47.7342217,26.3955077 L47.2119646,27.5803484 L46.7861241,28.4299511 L46.2136499,29.4636846 L45.4935376,30.6405195 L44.7563515,31.6892636 L44.1115648,32.5258571 L43.3743787,33.3844663 L42.316808,34.4622309 L41.6750343,35.0866739 L40.3965086,36.1444244 C40.0801412,36.373587 39.728622,36.5577176 39.4403762,36.8709398 C39.8937264,36.9819242 40.3618413,37.0207646 40.8273707,36.9860215 C41.4758719,37.020321 42.1258702,36.95758 42.7557049,36.7998894 C43.0904152,36.8067041 43.422366,36.7382965 43.7269023,36.5997474 C44.2854462,36.515581 44.8250878,36.3354478 45.3217954,36.0673697 C45.6579668,35.985019 45.9744112,35.8370625 46.2528192,35.6320609 C46.5753571,35.5179956 46.8722447,35.3418671 47.1265956,35.1136931 L47.5976314,34.8685192 C47.5654925,35.1216988 47.319429,35.2237712 47.2069429,35.4199104 L46.5621561,36.035347 L45.6180759,36.8269086 L44.542427,37.6324801 L44.0010873,38.022757 L43.274949,38.5010964 L42.5287239,38.9454116 L41.8779111,39.3116715 L41.2441721,39.6349008 L40.3904825,40.0561997 L39.2354907,40.5295355 L38.3838098,40.8417571 L37.5190724,41.1339644 C37.1143857,41.193897 36.7175992,41.2982727 36.3359591,41.4451852 C35.974968,41.4643687 35.6187054,41.5358356 35.2783883,41.6573357 C34.9609222,41.6531915 34.6445545,41.6953338 34.3393298,41.7824244 L32.7946538,41.8824954 C33.6543694,42.6830634 34.4417725,43.3575419 35.3898702,43.8188692 C35.9448128,44.1927271 36.5600274,44.4689283 37.2087312,44.6354486 C37.742736,44.8825801 38.3169752,45.0320612 38.9040583,45.0767617 C39.1330479,45.1988483 39.3821244,45.1768327 39.6271836,45.1708284 C39.6451829,45.1797471 39.6636189,45.1877628 39.6824223,45.1948455 C40.0731108,45.3509562 40.5220511,45.1147887 40.8996832,45.3599626 C40.689776,45.3699697 40.4758515,45.3599626 40.2870354,45.4780464 C39.996781,45.4550301 39.7205873,45.5340862 39.4423849,45.5991323 L37.5893763,45.7602466 C37.4882765,45.7574918 37.3871908,45.7662208 37.2880741,45.7862651 C37.2626415,45.7673608 37.2267771,45.7717725 37.2067225,45.7962722 L36.8873421,45.8032771 L36.0366656,45.8032771 L35.6178555,45.7952715 C35.5609302,45.7512757 35.4876213,45.7341104 35.4169874,45.7482381 C35.2874274,45.769253 35.1307503,45.7162154 35.003199,45.7362296 L33.6975561,45.6101401 L32.6339593,45.3969889 L31.1495437,44.968685 L29.7645579,44.4313038 L28.4890452,43.8148664 L26.3799297,42.6140144 C24.8111495,41.5132334 23.2534171,40.3974418 21.8714443,39.0584919 C21.2326836,38.4390524 20.4904758,37.9216853 19.9943315,37.1571429 C19.9601839,37.1041053 19.7522854,36.8519264 19.7934634,37.2181862 C19.786433,37.4333389 19.7603201,37.6514936 19.871802,37.8516356 C19.8863119,38.0606342 19.9117901,38.268733 19.9481319,38.4750779 C20.3418334,40.2203162 21.2768746,41.6713456 22.427849,43.0102956 C22.8034725,43.4466051 23.2905777,43.7838444 23.5738018,44.3002108 C21.7659885,43.5576839 20.1871649,42.4709129 18.7881183,41.1279601 C18.2507961,40.6125945 17.8028601,40.0041628 17.3147505,39.4387617 C17.2143165,39.1455536 17.0134483,38.9213946 16.8125802,38.6902306 L16.0613333,37.4213303 L15.193583,35.4129054 L14.8581332,34.1370002 L14.556831,32.5518756 L14.5297138,32.1215703 C14.5488226,31.9342442 14.5355745,31.7450408 14.4905445,31.5621734 C14.4834727,31.5314387 14.4730318,31.5015716 14.4594099,31.4731102 L14.4473578,30.7505976 C14.4473578,30.5384471 14.4473578,30.3266301 14.4473578,30.1151468 L14.465436,29.6047847 C14.5445967,29.2856085 14.573398,28.9560976 14.5508049,28.6280917 C14.641704,28.3257894 14.6830784,28.010859 14.6733345,27.69543 C14.7063244,27.6188789 14.7237347,27.5365641 14.7245559,27.4532582 L14.9686107,26.3024417 L15.1212704,25.6810008 L15.3874207,24.9204612 L15.7329139,24.0908727 L16.2662188,23.1261882 C16.425909,22.9260462 16.5946382,22.7389135 16.6679551,22.488736 C16.7754196,22.343633 16.9582096,22.2585727 17.0074223,22.0674371 L17.5457489,21.4329869 L17.9595373,21.0056838 L18.7328796,20.2751655 L19.6789685,19.5296366 C19.9115682,19.4247783 20.1237349,19.2797797 20.3056771,19.1013327 C20.5519202,19.0061142 20.7791194,18.8678474 20.9765767,18.693043 C21.198009,18.6242322 21.4030477,18.5111875 21.5791812,18.3608073 L22.6708995,17.8404381 C22.9605818,17.7714527 23.2382057,17.6594552 23.4944589,17.5082024 L25.3022721,16.9588126 L26.0304191,17.2320064 L27.1110897,17.7033408 C27.5494509,17.9379509 28.0112948,18.1261125 28.4890452,18.2647391 C28.8211217,18.4563647 29.1808939,18.5957703 29.555655,18.6780324 C29.7394494,18.8251367 29.9694434,18.8591609 30.183368,18.9322127 C30.3490842,19.0322837 30.5178134,19.1253497 30.7226989,19.1073369 C31.0944818,19.2921189 31.4893124,19.4267308 31.8967732,19.5076209 C32.2317617,19.6714321 32.5902178,19.7824961 32.9593657,19.8368545 C33.1823293,19.9839589 33.4474752,20.0039731 33.694543,20.0790263 C34.6988837,20.3962514 35.7122635,20.6794523 36.7658169,20.794534 C36.9305288,20.9076142 37.1183405,20.9006092 37.3051479,20.894605 C37.7549422,21.0359936 38.2235153,21.1091965 38.6951554,21.111759 C38.9964576,21.242852 39.3238727,21.21183 39.6442574,21.21183 C39.7292535,21.2451946 39.8191603,21.2644632 39.9104077,21.2688705 C40.3543262,21.342923 40.8032665,21.3088989 41.2512025,21.2958897 C41.7252513,21.3068975 42.2023131,21.3669401 42.6693316,21.2238386 L43.1715019,21.1868123 C43.6451501,21.1531033 44.1108476,21.0474768 44.5524704,20.8735901 C45.1760705,20.7290612 45.7568145,20.4404244 46.2477975,20.0309923 C47.3585983,19.2024044 47.7211653,18.0826099 47.5303406,16.7486635 C47.5192928,16.06718 47.3073769,15.442737 46.9970356,14.8473146 C46.8021936,14.4470306 46.6957334,14.010721 46.3944312,13.6684782 C46.2267063,13.2211608 45.8792044,12.8969308 45.6020064,12.523666 C45.3810515,12.0553337 45.0275235,11.6890738 44.6659609,11.329819 C44.3286075,10.8689234 43.9302982,10.4555598 43.4818432,10.1009471 C42.0864848,8.69690986 40.5198697,7.47282512 38.8186893,6.45736206 C38.6322122,6.280081 38.4105065,6.14372034 38.1678765,6.05707807 C37.8726004,5.839924 37.5783285,5.62076851 37.2087312,5.54071171 L35.737372,4.7571558 C35.2962781,4.50123574 34.8267649,4.29738488 34.3383254,4.14972484 C33.874092,3.90663992 33.3797114,3.72561857 32.8679706,3.61134287 C32.4271194,3.40450273 31.9580706,3.26355495 31.4759544,3.1930461 C31.0356332,3.0236153 30.573355,2.91747689 30.1030207,2.87782245 C30.0788029,2.86702531 30.0535712,2.85864514 30.0276951,2.8528047 C29.6695394,2.7289153 29.2930056,2.66599185 28.9138813,2.66667265 C28.5010973,2.52857467 28.0712395,2.50956118 27.6413816,2.48654485 L27.0096513,2.45652355 C26.903255,2.42240183 26.7928553,2.40221822 26.6812319,2.39648095 C26.0866622,2.32242841 25.4830535,2.41849657 24.8884838,2.34744616 C23.603932,1.04652318 22.0572473,0.237949518 20.2333646,0.0458132019 C18.2377396,-0.162334474 16.4741174,0.315004187 15.1674701,1.96817708 C14.7657338,2.48054059 14.3107675,2.95587783 13.878901,3.44622572 C12.740983,4.74314586 11.3991838,5.62276993 9.59438355,5.6798104 C8.77917206,5.71332103 7.97532499,5.88243867 7.21610477,6.18016539 C5.86024482,6.69853316 5.05677226,7.64620552 4.85590412,9.10524067 C4.7394006,9.95084061 4.78660461,10.7964405 4.76551346,11.6410398 C4.73036153,13.0160153 4.3446947,14.1848445 3.15254229,15.0274423 C2.4173649,15.549813 1.79467366,16.2152851 1.19909962,16.8957679 C0.374535907,17.8354346 0.0923161696,18.9051935 0.374535907,20.1360668 C0.592477839,21.0827385 0.915875545,21.9963867 1.20412133,22.920042 C1.64000519,24.321036 1.70629168,25.6900072 0.701950976,26.8788507 C-0.263220439,28.0206608 -0.147721258,29.1644723 0.532217397,30.3503136 C1.18604319,31.4901223 2.03872845,32.4768223 2.95468717,33.4134869 C3.24393729,33.747724 3.28913263,34.2000449 3.51812231,34.5623019 L3.71899045,35.0116207 C3.78125957,35.1937499 3.83248094,35.3808827 3.90680216,35.5570076 C7.1206924,43.1063637 12.6947833,48.2079832 20.2956337,51.1790912 C23.0782553,52.2761746 26.0303135,52.8855778 29.0213458,52.9803691 L30.19542,52.9803691 C31.2982263,53.037343 32.4039634,52.9702047 33.4916662,52.7802271 C33.9255414,52.7672179 34.3584123,52.7432009 34.7681833,52.5750816 C35.0694855,52.6161107 35.3376444,52.5010291 35.6188598,52.4429879 L36.8943725,52.1287649 L37.9509389,51.8205463 L38.5886953,51.6083958 C38.9211321,51.5083248 39.2585905,51.414258 39.5588884,51.2291267 C39.9726768,51.0950315 40.3894782,50.9689421 40.730954,50.6817383 C40.863527,50.7087575 40.9398569,50.6006808 41.0412953,50.551646 C41.1993828,50.5384449 41.3468835,50.4671015 41.4550837,50.351504 C41.6932567,50.2904671 41.9141922,50.1757768 42.1008747,50.0162662 C42.5221934,49.833656 42.9184212,49.5982584 43.2799707,49.3157692 C43.6164248,49.2086932 43.8002192,48.8794596 44.1185952,48.7453645 L44.6659609,48.3700982 C44.984035,48.1983792 45.2720114,47.9763337 45.5186461,47.7126318 C45.9329926,47.4352823 46.3147001,47.1123562 46.6565641,46.7499488 C46.9485801,46.5455742 47.2065021,46.2966895 47.4208674,46.0124255 C47.5935794,45.9061499 47.7390423,45.7612128 47.8457035,45.5891252 C48.0180028,45.4876178 48.1574367,45.3389629 48.2474398,45.1608213 C48.4132868,45.0728252 48.5361634,44.9215002 48.5879113,44.7415239 C48.7887795,44.5944195 48.9896476,44.4413109 49.1001251,44.206144 C49.4246352,43.8867193 49.7120134,43.5319003 49.9568277,43.1483936 C50.2354643,42.8602441 50.4773312,42.5389208 50.67694,42.1917148 L51.310679,41.2430418 C51.6617434,40.7451161 51.9593231,40.2118114 52.1985161,39.6519129 C52.6632613,38.8556087 52.999468,37.9914526 53.1948221,37.091096 L51.2383664,38.5691447 L49.9528103,39.4007347 L49.1202119,39.8920833 L48.1640795,40.4124525 L46.7831111,41.0439005 L46.1433461,41.2750645 L45.500568,41.4812107 L44.6498914,41.694362 L43.9177271,41.7714166 C44.0081177,41.5842839 44.2622159,41.6403236 44.365663,41.4712036 C44.5930868,41.4170097 44.8031137,41.3065246 44.9763022,41.1499757 C45.2725827,40.9808557 45.6080325,40.8787833 45.8510829,40.6226016 C46.0368859,40.5475483 46.2166629,40.462488 46.3291491,40.2833609 C46.7404376,40.0781049 47.1139552,39.8050695 47.4339239,39.4757879 C47.759847,39.2667371 48.0535118,39.0115521 48.3056916,38.7182505 C48.5837905,38.5029226 48.833799,38.253818 49.049908,37.9767244 C49.4094257,37.6649119 49.7237701,37.304891 49.9839449,36.9069654 C50.3020752,36.588258 50.5763143,36.2288631 50.7994695,35.8382071 C50.9661901,35.5459998 51.2423838,35.3238422 51.3468352,34.9916065 C51.5562901,34.7332695 51.7271243,34.4460921 51.8540273,34.1390016 C52.1292166,33.67167 52.3933582,33.1993349 52.5570658,32.6759636 C52.8564313,32.1000304 53.0869949,31.4911114 53.2440348,30.8616764 L53.5664282,29.6908457 C53.7319059,29.068153 53.8401518,28.4317442 53.8898259,27.7894968 C54.0868625,26.2782808 54.0192382,24.7444595 53.6899621,23.2562805 Z M33.461536,10.8134526 C34.1304826,10.8134526 34.6727709,11.3537806 34.6727709,12.0203089 C34.6727709,12.6868371 34.1304826,13.2271651 33.461536,13.2271651 C32.7925894,13.2271651 32.2503011,12.6868371 32.2503011,12.0203089 C32.2503011,11.3537806 32.7925894,10.8134526 33.461536,10.8134526 Z" id="Shape"></path>
            </g>
        </g>
    </g>
</svg>