<?xml version="1.0" standalone="no"?>
<!DOCTYPE svg PUBLIC "-//W3C//DTD SVG 20010904//EN"
 "http://www.w3.org/TR/2001/REC-SVG-20010904/DTD/svg10.dtd">
<svg version="1.0" xmlns="http://www.w3.org/2000/svg"
 width="192.000000pt" height="192.000000pt" viewBox="0 0 192.000000 192.000000"
 preserveAspectRatio="xMidYMid meet">
<metadata>
Created by potrace 1.11, written by Peter Selinger 2001-2013
</metadata>
<g transform="translate(0.000000,192.000000) scale(0.100000,-0.100000)"
fill="#000000" stroke="none">
<path d="M471 1782 c-23 -18 -41 -37 -41 -41 0 -4 -94 -170 -209 -369 -116
-199 -212 -375 -215 -392 -3 -22 6 -51 32 -103 19 -40 39 -73 44 -75 4 -2 8
-8 8 -13 0 -4 47 -88 104 -186 56 -98 136 -234 175 -303 76 -131 106 -170 128
-170 7 0 13 -4 13 -10 0 -15 113 -12 129 2 8 8 11 8 8 2 -5 -8 21 -12 89 -12
71 -1 93 2 87 11 -5 9 -3 9 9 -1 18 -14 67 -13 87 2 11 8 13 8 8 0 -9 -16 171
-18 191 -2 10 8 13 8 9 2 -5 -8 33 -12 138 -12 86 -1 145 3 145 8 0 6 6 10 13
10 21 1 51 33 90 98 20 35 37 65 37 68 0 2 16 28 35 58 19 30 35 57 35 60 0 3
36 66 80 142 44 75 80 137 80 139 0 2 18 33 40 69 79 130 102 184 94 219 -6
28 -75 153 -298 536 -36 62 -66 115 -66 117 0 2 -14 27 -32 56 -38 64 -77 108
-95 108 -7 0 -13 4 -13 9 0 5 -11 9 -25 9 -14 0 -22 -5 -18 -11 4 -6 1 -7 -8
-1 -22 14 -121 16 -113 2 5 -7 3 -8 -7 -2 -23 14 -81 15 -73 1 6 -9 4 -9 -7
-1 -20 16 -201 16 -193 1 5 -8 2 -7 -7 1 -7 6 -19 12 -27 12 -8 0 -10 -5 -6
-12 6 -10 4 -10 -7 0 -17 15 -43 16 -33 0 5 -7 3 -8 -7 -2 -22 14 -121 16
-113 2 5 -7 3 -8 -7 -2 -23 14 -81 15 -73 1 6 -9 4 -9 -7 -1 -8 7 -47 12 -90
11 -72 0 -79 -2 -118 -35z"/>
</g>
</svg>
