<?xml version="1.0" encoding="UTF-8"?>
<svg width="139px" height="16px" viewBox="0 0 139 16" version="1.1" xmlns="http://www.w3.org/2000/svg" xmlns:xlink="http://www.w3.org/1999/xlink">
    <!-- Generator: Sketch Beta 48 (47110) - http://www.bohemiancoding.com/sketch -->
    <title>Shape</title>
    <desc>Created with Sketch Beta.</desc>
    <defs/>
    <g id="navbar/green" stroke="none" stroke-width="1" fill="none" fill-rule="evenodd" transform="translate(-76.000000, -22.000000)">
        <path d="M133.77541,37.2639344 L133.922951,37.2639344 C134.466182,37.2639344 134.906557,36.8235588 134.906557,36.2803279 L134.906557,24.0196721 C134.906557,23.4764412 134.466182,23.0360656 133.922951,23.0360656 L133.77541,23.0360656 C133.232179,23.0360656 132.791803,23.4764412 132.791803,24.0196721 L132.791803,36.2704918 C132.789177,36.5330605 132.891647,36.785779 133.076394,36.9723739 C133.261142,37.1589688 133.512828,37.2639476 133.77541,37.2639344 Z M120.801639,24.6885246 C122.046194,24.6930758 123.232776,25.2151006 124.077049,26.1295082 C124.384893,26.4765878 124.888458,26.5716383 125.301639,26.3606557 C125.585372,26.2210581 125.784688,25.9535625 125.837305,25.6417563 C125.889923,25.3299502 125.789424,25.0118608 125.567213,24.7868852 C124.336203,23.465594 122.597027,22.7366089 120.791803,22.7852459 C116.65082,22.7852459 113.414754,25.7754098 113.414754,30.1622951 C113.414754,34.5491803 116.660656,37.5393443 120.791803,37.5393443 C122.593871,37.5864155 124.329403,36.8574561 125.557377,35.5377049 C125.779588,35.3127293 125.880087,34.9946399 125.827469,34.6828338 C125.774852,34.3710277 125.575536,34.1035321 125.291803,33.9639344 C124.878622,33.7529519 124.375057,33.8480024 124.067213,34.195082 C123.222588,35.1089953 122.036232,35.6309205 120.791803,35.6360656 C117.840984,35.6360656 115.603279,33.3491803 115.603279,30.1721311 C115.603279,26.995082 117.831148,24.6885246 120.801639,24.6885246 Z M99.9836066,24.2606557 L95.395082,35.8032787 C95.2589318,36.132168 95.2957192,36.5072878 95.4931683,36.8034616 C95.6906175,37.0996353 96.0227329,37.2778698 96.3786885,37.2786885 L96.5114754,37.2786885 C96.9471434,37.2744463 97.3364879,37.0057986 97.495082,36.6 L98.3803279,34.3327869 L103.086885,34.3327869 L102.722951,33.3491803 C102.52646,32.8066002 102.011489,32.4449409 101.434426,32.4442623 L98.9754098,32.4442623 L101.754098,25.2295082 L106.062295,36.604918 C106.217733,37.0145829 106.607778,37.2876141 107.045902,37.2934426 L107.168852,37.2934426 C107.524808,37.2926239 107.856924,37.1143894 108.054373,36.8182157 C108.251822,36.5220419 108.288609,36.1469221 108.152459,35.8180328 L103.568852,24.2754098 C103.271233,23.5281164 102.54864,23.0372981 101.744262,23.0360656 C100.966905,23.0603372 100.276823,23.5403106 99.9836066,24.2606557 Z M77.3606557,23.0213115 C76.7712502,23.0213115 76.2934426,23.4991191 76.2934426,24.0885246 L76.2934426,36.1967213 C76.2934426,36.7861268 76.7712502,37.2639344 77.3606557,37.2639344 C77.9500613,37.2639344 78.4278689,36.7861268 78.4278689,36.1967213 L78.4278689,30.9 L84.1622951,30.9 L84.1622951,30.3737705 C84.1622951,29.6159634 83.547971,29.0016393 82.7901639,29.0016393 L78.4278689,29.0016393 L78.4278689,24.0836066 C78.4265726,23.799705 78.3122088,23.5280208 78.1100783,23.3286592 C77.9079478,23.1292976 77.6347121,23.0186919 77.3508197,23.0213115 L77.3606557,23.0213115 Z M87.3737705,37.2836066 C87.963176,37.2836066 88.4409836,36.805799 88.4409836,36.2163934 L88.4409836,24.0885246 C88.4409836,23.4991191 87.963176,23.0213115 87.3737705,23.0213115 C86.784365,23.0213115 86.3065574,23.4991191 86.3065574,24.0885246 L86.3065574,36.1967213 C86.3065325,36.7823069 86.7783737,37.2585373 87.3639344,37.2639344 L87.3737705,37.2836066 Z M196.086885,30.004918 C196.086885,29.7557884 195.987919,29.5168626 195.811758,29.3407013 C195.635596,29.1645401 195.396671,29.0655738 195.147541,29.0655738 L192.988525,29.0655738 C192.230717,29.0655738 191.616393,29.6798978 191.616393,30.4377049 L191.616393,30.9295082 L195.147541,30.9295082 C195.660619,30.9295715 196.078826,30.5179326 196.086885,30.004918 Z M141.334426,23.0213115 C141.040151,23.0193672 140.760465,23.149286 140.572131,23.3754098 L135.919672,28.8934426 C135.49624,29.4020989 135.49624,30.140524 135.919672,30.6491803 L141.04918,36.9 C141.236685,37.1311391 141.518765,37.2649464 141.816393,37.2639344 L141.85082,37.2639344 C142.242441,37.2731011 142.602169,37.0490142 142.766597,36.6934655 C142.931025,36.3379168 142.868804,35.918694 142.608197,35.6262295 L137.655738,29.7540984 L142.081967,24.6540984 C142.337977,24.3627177 142.398845,23.9480934 142.237383,23.595427 C142.075921,23.2427605 141.722282,23.0179106 141.334426,23.0213115 Z M187.357377,37.2836066 L195.983607,37.2836066 C196.502392,37.2836066 196.922951,36.8630478 196.922951,36.3442623 C196.922951,35.8254768 196.502392,35.404918 195.983607,35.404918 L189.491803,35.404918 L189.491803,24.9 L195.983607,24.9 C196.502392,24.9 196.922951,24.4794412 196.922951,23.9606557 C196.922951,23.4418702 196.502392,23.0213115 195.983607,23.0213115 L187.357377,23.0213115 L187.357377,37.2836066 Z M208.967213,28.8540984 C207.196721,28.4065574 205.657377,27.9983607 205.657377,26.7196721 C205.657377,25.5245902 206.744262,24.7131148 208.327869,24.7131148 C209.557843,24.6856126 210.7643,25.0527203 211.770492,25.7606557 C212.206982,26.0647594 212.806156,25.9667127 213.122951,25.5393443 C213.288912,25.3330931 213.364727,25.0686509 213.333259,24.8057966 C213.301791,24.5429424 213.165695,24.3038698 212.955738,24.142623 C211.664659,23.2285639 210.110637,22.7606307 208.529508,22.8098361 C205.578689,22.8098361 203.488525,24.5163934 203.488525,26.8672131 C203.488525,29.7737705 206.134426,30.4327869 208.406557,31.0327869 C210.221311,31.5245902 211.84918,31.9278689 211.84918,33.4229508 C211.84918,34.4459016 211.037705,35.6213115 208.731148,35.6213115 C207.370815,35.6254652 206.050054,35.1638063 204.988525,34.3131148 C204.778274,34.1487162 204.510244,34.0768145 204.245941,34.1139097 C203.981639,34.1510048 203.743757,34.2939117 203.586885,34.5098361 L203.552459,34.5590164 C203.24189,34.9706883 203.301985,35.5523268 203.690164,35.8918033 C205.095935,37.0081615 206.85351,37.5870454 208.647541,37.5245902 C212.488525,37.5245902 214.027869,35.4540984 214.027869,33.2311475 C213.988525,30.1967213 211.27377,29.4737705 208.967213,28.8540984 Z M153.791803,24.2606557 L149.237705,35.7245902 C149.100996,36.0713067 149.144665,36.4632021 149.354343,36.7713205 C149.564021,37.0794388 149.912551,37.2638733 150.285246,37.2639344 C150.747723,37.2638586 151.163145,36.9810598 151.332787,36.5508197 L152.203279,34.3180328 L156.909836,34.3180328 L156.545902,33.3344262 C156.349411,32.7918461 155.83444,32.4301868 155.257377,32.4295082 L152.798361,32.4295082 L155.577049,25.2147541 L159.870492,36.5508197 C160.036018,36.9885379 160.454981,37.2782876 160.922951,37.2786885 C161.295646,37.2786274 161.644176,37.0941929 161.853854,36.7860746 C162.063532,36.4779562 162.107201,36.0860608 161.970492,35.7393443 L157.416393,24.2754098 C157.118774,23.5281164 156.396181,23.0372981 155.591803,23.0360656 C154.800028,23.0448029 154.090668,23.5274001 153.791803,24.2606557 Z M173.65082,31.6721311 L178.219672,31.6721311 L178.219672,34.2344262 C177.227857,35.1291321 175.945398,35.6340786 174.609836,35.6557377 C171.659016,35.6557377 169.421311,33.3491803 169.421311,30.1672131 C169.421311,26.9852459 171.644262,24.7032787 174.609836,24.7032787 C175.878452,24.7040966 177.098381,25.1917163 178.018033,26.0655738 C178.331823,26.3837544 178.820671,26.4504154 179.208197,26.2278689 C179.475551,26.0735022 179.65492,25.8025686 179.692617,25.4961595 C179.730314,25.1897504 179.621965,24.8834194 179.4,24.6688525 C178.11629,23.4301608 176.388118,22.7601617 174.604918,22.8098361 C170.527869,22.8098361 167.227869,25.7360656 167.227869,30.1868852 C167.227869,34.6377049 170.537705,37.5639344 174.604918,37.5639344 C176.467548,37.5882076 178.274039,36.9265279 179.680328,35.704918 C180.112463,35.3167796 180.356228,34.7611402 180.34918,34.1803279 L180.34918,31.1655738 C180.34919,30.7999513 180.203277,30.4494455 179.943821,30.1918363 C179.684365,29.9342272 179.332826,29.7908217 178.967213,29.7934426 L175.032787,29.7934426 C174.27498,29.7934426 173.660656,30.4077667 173.660656,31.1655738 L173.65082,31.6721311 Z" id="Shape" fill="#FFFFFF" fill-rule="nonzero"/>
    </g>
</svg>