<?xml version="1.0" encoding="utf-8"?>
<!-- Generator: Adobe Illustrator 22.0.1, SVG Export Plug-In . SVG Version: 6.00 Build 0)  -->
<svg version="1.1" id="Calque_1" xmlns="http://www.w3.org/2000/svg" xmlns:xlink="http://www.w3.org/1999/xlink" x="0px" y="0px"
	 viewBox="0 0 81.8 77.6" style="enable-background:new 0 0 81.8 77.6;" xml:space="preserve">
<style type="text/css">
	.st0{clip-path:url(#SVGID_2_);}
	.st1{fill:#FFFFFF;}
</style>
<title>brandbook</title>
<g>
	<defs>
		<path id="SVGID_1_" d="M76.6,54.1c-3.4,11.7-22.5,12.1-30,4.4C45,56.6,44,55.6,43,53.6c4-2.4,4-2.4,8-4.6c2.1,3.3,4.1,5.1,7.6,5.8
			c4.8,0.6,9.6-1.1,8.6-6.2c-1.1-4.2-9.9-5.2-15.8-9.6c-6-4-7.5-13.9-2.5-19.5c2-2.2,4.6-3.7,7.5-4.4l3.1-0.4
			c6-0.1,9.7,1.4,12.4,4.5c0.9,1,1.8,2.2,2.5,3.4c-3.2,2-3.2,2-7.7,5c-0.8-1.9-2.4-3.3-4.3-4c-2.6-0.8-6,0.1-6.6,2.9
			c-0.2,1-0.2,2.1,0.2,3.1c1.1,2.4,4.6,3.5,7.9,4.9c9.2,3.8,12.4,7.8,13.2,12.6C77.5,49.3,77.4,51.8,76.6,54.1z"/>
	</defs>
	<use xlink:href="#SVGID_1_"  style="overflow:visible;fill:#FFFFFF;"/>
	<clipPath id="SVGID_2_">
		<use xlink:href="#SVGID_1_"  style="overflow:visible;"/>
	</clipPath>
	<g class="st0">
		<rect x="36.6" y="8.1" class="st1" width="47" height="61.9"/>
	</g>
</g>
<path class="st1" d="M40.5,14.9H5.2c-0.2,0-0.3,0.2-0.3,0.3v8.1c0,0.2,0.2,0.3,0.3,0.3h12.2c0.2,0,0.3,0.2,0.3,0.3v39.2
	c0,0.2,0.2,0.3,0.3,0.3h9.3c0.2,0,0.3-0.2,0.3-0.3V24c0-0.2,0.2-0.3,0.3-0.3h12.5c0.2,0,0.3-0.2,0.3-0.3v-8.1
	C40.9,15.1,40.7,14.9,40.5,14.9z"/>
</svg>
